<svg width="108" height="86" viewBox="0 0 108 86" fill="none" xmlns="http://www.w3.org/2000/svg">
<path d="M3.59717 5.8269C4.55825 13.3408 4.97172 20.8752 5.77695 28.4041C6.50161 35.1797 7.05505 42.0016 7.2748 48.8137C7.45985 54.5504 7.89581 60.3829 7.32351 66.1059" stroke="black" stroke-width="7" stroke-linecap="round"/>
<path d="M24.4209 3.85425C26.0154 14.7769 26.9268 25.7596 28.3177 36.7093C29.2767 44.2589 30.8023 51.7158 31.4352 59.3109" stroke="black" stroke-width="7" stroke-linecap="round"/>
<path d="M4.69336 36.953C10.3764 35.3332 16.0357 33.6882 21.7907 32.3499" stroke="black" stroke-width="7" stroke-linecap="round"/>
<path d="M35.8193 33.0074C41.7954 32.0747 47.811 30.5583 51.9181 25.7009C54.575 22.5586 57.0161 16.6444 54.5484 12.7439C52.2649 9.13451 46.8489 8.72355 43.3938 10.9173C38.1792 14.2282 36.7742 21.0157 37.2319 26.8212C37.5776 31.2062 38.8666 35.4586 40.4346 39.5468C41.6384 42.6852 43.0401 45.769 45.0986 48.4486C47.0252 50.9565 50.9827 54.8725 54.5606 53.8067C56.8079 53.1373 58.2052 51.598 59.3708 49.6907C59.7318 49.0999 59.7597 48.4984 60.1501 47.9128" stroke="black" stroke-width="7" stroke-linecap="round"/>
<path d="M68.6987 5.60791C68.6987 10.794 68.1951 17.2571 70.5375 22.072C72.4757 26.0562 76.7697 27.7129 80.1821 24.3005C82.986 21.4966 84.0842 17.1542 84.8218 13.3772C84.9822 12.5557 84.9425 10.0925 85.1871 10.893C86.3863 14.8176 86.9222 19.1118 87.5739 23.1436C89.2878 33.746 90.3535 44.8713 86.892 55.2559C83.129 66.5448 74.3428 80.2538 61.3312 81.8152C56.0724 82.4462 51.2466 80.236 49.726 74.874C48.6557 71.0999 49.6107 67.4099 50.2862 63.6949" stroke="black" stroke-width="7" stroke-linecap="round"/>
<path d="M103.551 11.9646C103.485 26.1414 102.674 40.3119 102.674 54.4887" stroke="black" stroke-width="7" stroke-linecap="round"/>
<path d="M102.01 60.1526C102.614 60.4058 102.829 60.6157 102.509 61.2933C102.459 61.3981 101.881 62.4076 101.621 61.9468C101.488 61.7104 101.55 61.3495 101.644 61.1103C101.894 60.4766 102.548 60.9106 102.72 61.3694" stroke="black" stroke-width="7" stroke-linecap="round"/>
</svg>
