<svg width="1390" height="940" viewBox="0 0 1390 940" fill="none" xmlns="http://www.w3.org/2000/svg">
<g id="ill-home-page">
<g id="menu links">
<path id="Vector 6" d="M856.841 291.028C877.892 291.476 898.468 294.097 919.284 297.071" stroke="black" stroke-width="3" stroke-linecap="round"/>
<path id="Vector 18" d="M1045 303C1066.05 303.448 1086.63 306.069 1107.44 309.043" stroke="black" stroke-width="3" stroke-linecap="round"/>
<path id="Vector 17" d="M949 297C970.051 297.448 990.627 300.069 1011.44 303.043" stroke="black" stroke-width="3" stroke-linecap="round"/>
</g>
<g id="browser-window">
<path id="Vector 1" d="M81.3417 272.9C224.95 255.157 368.783 238.494 513.406 231.831C661.412 225.012 809.091 228.44 956.884 237.874C1031.47 242.635 1107.25 246.918 1181.36 257.233C1196.87 259.391 1219.38 259.791 1233.51 266.857" stroke="black" stroke-width="3" stroke-linecap="round"/>
<path id="Vector 2" d="M131.699 230.6C142.848 408.984 130.515 588.301 153.856 765.952C160.681 817.901 175.838 868.255 186.084 919.485" stroke="black" stroke-width="3" stroke-linecap="round"/>
<path id="Vector 3" d="M1209.34 226.571C1202.48 277.813 1192.56 328.373 1190.09 380.104C1186.39 457.811 1181.37 535.721 1181.14 613.537C1180.99 663.372 1178.21 714.239 1182.26 763.937C1183.92 784.306 1185.17 804.378 1185.17 824.813" stroke="black" stroke-width="3" stroke-linecap="round"/>
<path id="Vector 4" d="M178.027 937.613C380.866 894.539 586.235 889.913 792.608 882.332C927.325 877.384 1063.14 875.188 1197.25 861.071" stroke="black" stroke-width="3" stroke-linecap="round"/>
<path id="Vector 5" d="M131.699 341.385C386.654 317.701 645.223 322.501 900.707 335.343C1003.03 340.486 1104.79 351.457 1207.33 351.457" stroke="black" stroke-width="3" stroke-linecap="round"/>
<path id="Vector 19" d="M875.729 235.13C914.432 190.322 957.552 151.617 1005.85 117.356C1028.96 100.968 1053.09 86.1692 1077.26 71.4169C1090.45 63.3616 1103.47 54.5565 1117.24 47.4722C1123.62 44.1873 1130.35 41.6403 1136.68 38.2626C1139.35 36.8399 1141.81 35.1109 1144.76 34.308C1146.74 33.7682 1147.75 32.3035 1149.74 32.3035" stroke="black" stroke-width="3" stroke-linecap="round"/>
<path id="Vector 20" d="M1158.96 21.5883C1160.16 25.3546 1161.58 29.1666 1162.12 33.1008C1162.2 33.619 1162.58 35.0831 1162.14 35.582C1161.86 35.8972 1160.82 33.3166 1160.75 33.1008C1159.95 30.7997 1159.63 28.3609 1159.22 25.9693C1159.11 25.3318 1157.63 20.5367 1159.13 20.5675C1161.23 20.6103 1163.13 22.0504 1164.72 23.2329C1169.57 26.8453 1174.11 30.8309 1178.61 34.8589" stroke="black" stroke-width="3" stroke-linecap="round"/>
<path id="Vector 21" d="M1173.25 17.2498C1174.54 23.1399 1175.83 29.0237 1177.34 34.8589" stroke="black" stroke-width="3" stroke-linecap="round"/>
<path id="Vector 22" d="M1182.7 18.781C1183.34 21.6379 1184.05 24.471 1184.74 27.3162C1184.92 28.0662 1185.15 29.0733 1184.98 29.854C1184.88 30.2946 1184.45 29.4088 1184.44 29.3862C1183.65 27.9044 1183.17 26.2343 1183.01 24.5657C1182.84 22.7577 1182.49 18.5542 1185.05 18.5542C1187.47 18.5542 1189.31 19.9491 1191.2 21.3331C1194.52 23.7618 1196.94 26.4424 1199.29 29.7548" stroke="black" stroke-width="3" stroke-linecap="round"/>
<path id="Vector 23" d="M1183.72 27.9684C1185.75 27.328 1187.77 26.8985 1189.84 26.4371" stroke="black" stroke-width="3" stroke-linecap="round"/>
<path id="Vector 24" d="M1192.4 13.4217C1197.43 18.0281 1202.5 22.8521 1207.96 26.9476" stroke="black" stroke-width="3" stroke-linecap="round"/>
<path id="Vector 25" d="M1207.71 7.29684C1207.18 12.7421 1206.39 18.1621 1206.18 23.6299" stroke="black" stroke-width="3" stroke-linecap="round"/>
</g>
<g id="logo">
<path id="Vector 105" d="M203.416 284.268C204.659 291.905 205.192 299.643 205.281 307.377C205.304 309.357 205.389 311.315 205.592 313.283" stroke="black" stroke-width="3" stroke-linecap="round"/>
<path id="Vector 106" d="M201.655 290.9C204.679 286.388 208.215 280.87 214.418 281.229C216.548 281.352 218.723 282.632 219.835 284.464C221.06 286.482 220.836 288.79 219.979 290.894C219.384 292.355 218.668 293.641 217.831 294.982C217.375 295.713 216.902 296.435 216.392 297.129C213.511 301.054 216.243 297.075 213.364 300.641" stroke="black" stroke-width="3" stroke-linecap="round"/>
<path id="Vector 107" d="M207.665 303.542C209.306 301.769 210.354 300.401 212.431 299.098C214.922 297.536 217.827 296.851 220.739 296.916C223.281 296.974 225.807 297.834 227.63 299.651C231.014 303.023 229.564 307.831 226.904 311.165C223.505 315.426 218.172 318.265 212.627 317.578C210.527 317.317 208.444 316.442 206.911 314.964C205.319 313.43 204.854 311.252 204.141 309.242" stroke="black" stroke-width="3" stroke-linecap="round"/>
<path id="Vector 108" d="M236.783 287.792C237.475 293.619 238.004 298.524 238.89 304.302C241.172 319.183 238.958 303.636 241.343 317.532" stroke="black" stroke-width="3" stroke-linecap="round"/>
<path id="Vector 109" d="M236.17 290.307C238.539 288.305 240.954 286.835 244.136 286.567C245.893 286.419 247.65 286.834 248.886 288.138C251.11 290.486 250.482 293.979 249.017 296.521C247.871 298.509 246.008 300.245 244.149 301.57C244.074 301.623 242.445 302.684 242.366 302.511C242.345 302.465 242.433 302.355 242.441 302.349C242.77 302.105 243.44 301.834 243.737 301.726C246.232 300.82 248.887 300.254 251.553 300.404C253.71 300.526 255.793 301.08 257.512 302.424C259.19 303.735 260.755 305.3 260.834 307.529C260.995 312.049 257.47 315.69 253.673 317.645C252.438 318.28 250.962 318.801 249.577 318.96C245.006 319.485 242.753 314.261 240.209 311.511" stroke="black" stroke-width="3" stroke-linecap="round"/>
<path id="Vector 110" d="M275.326 287.839C273.535 288.139 270.916 288.505 270.115 290.481C269.086 293.02 271.563 295.773 272.92 297.612C274.991 300.418 276.661 303.632 275.762 307.173C274.816 310.901 270.327 316.136 266.014 313.98" stroke="black" stroke-width="3" stroke-linecap="round"/>
<path id="Vector 111" d="M209.917 322.955C223.557 321.045 237.247 319.373 251.017 318.779C259.882 318.397 268.632 319.126 277.457 319.814" stroke="black" stroke-width="3" stroke-linecap="round"/>
<path id="Vector 112" d="M282.051 305.493C291.513 302.172 295.84 301.234 304.508 295.749C311.073 291.595 318.052 285.379 323.332 279.649C329.309 273.162 333.271 265.706 336.918 257.786C341.79 247.207 345.597 236.193 348.321 224.869C350.631 215.262 351.831 205.364 351.831 195.48" stroke="black" stroke-width="3" stroke-linecap="round"/>
<path id="Vector 113" d="M351.526 194.67C350.772 196.02 349.958 197.338 349.165 198.665" stroke="black" stroke-width="3" stroke-linecap="round"/>
<path id="Vector 114" d="M352.373 193.398C354.189 196.173 355.861 199.04 357.58 201.874" stroke="black" stroke-width="3" stroke-linecap="round"/>
<path id="Vector 115" d="M345.351 177.961C345.901 181.055 346.396 184.157 346.259 187.311C346.248 187.567 346.012 188.633 346.245 188.851C346.347 188.946 346.585 188.902 346.696 188.891C347.195 188.843 347.692 188.754 348.186 188.669C349.692 188.412 351.183 188.091 352.676 187.768" stroke="black" stroke-width="3" stroke-linecap="round"/>
<path id="Vector 116" d="M354.856 182.199C356.415 181.919 358.611 181.253 360.015 182.4C360.511 182.806 360.597 183.496 360.452 184.075C360.112 185.434 358.923 186.801 357.519 187.102C355.904 187.448 354.473 186.68 354.183 184.977C353.864 183.106 355.554 181.728 356.611 180.443" stroke="black" stroke-width="3" stroke-linecap="round"/>
<path id="Vector 117" d="M369.371 177.139C367.891 178.273 364.098 180.688 365.962 183.013C366.541 183.737 367.839 183.804 368.538 183.248C369.765 182.272 369.892 180.458 369.892 178.992C369.892 178.918 369.95 179.034 369.97 179.056C370.201 179.322 370.432 179.575 370.632 179.867C371.728 181.464 372.673 183.283 372.868 185.242C373.036 186.931 372.725 189.182 371.057 190.054C370.562 190.313 369.971 190.352 369.439 190.193C368.71 189.974 368.41 189.459 367.982 188.893" stroke="black" stroke-width="3" stroke-linecap="round"/>
<path id="Vector 118" d="M375.451 178.587C376.712 178.135 378.038 177.772 379.263 178.548C380.011 179.023 380.334 179.909 380.424 180.755C380.563 182.066 379.654 183.291 378.311 183.399C377.178 183.49 376.027 182.701 375.399 181.823C374.641 180.762 374.497 179.508 375.103 178.355" stroke="black" stroke-width="3" stroke-linecap="round"/>
</g>
<g id="image">
<path id="Vector 9" d="M168.852 401.634C254.517 396.354 339.887 397.31 425.619 400.701C459.911 402.057 496.227 399.335 530.193 404.996" stroke="black" stroke-width="3" stroke-linecap="round"/>
<path id="Vector 10" d="M493.218 371.383C481.703 433.998 479.381 496.466 482.948 559.989C485.156 599.321 488.076 638.105 493.218 677.075C495.281 692.71 497.096 708.263 498.634 723.947C501.528 753.465 503.302 782.039 503.302 811.714" stroke="black" stroke-width="3" stroke-linecap="round"/>
<path id="Vector 11" d="M204.146 391.55C218.117 461.407 221.811 533.219 224.687 604.247C226.502 649.077 235.474 693.958 236.078 738.699C236.498 769.748 236.078 800.83 236.078 831.882" stroke="black" stroke-width="3" stroke-linecap="round"/>
<path id="Vector 12" d="M185.659 776.42C230.614 775.764 275.46 772.101 320.391 770.631C358.325 769.391 396.263 769.816 434.209 769.698C463.985 769.605 493.688 768.017 523.47 768.017" stroke="black" stroke-width="3" stroke-linecap="round"/>
<path id="Vector 39" d="M265.649 588.522C252.541 603.348 239.66 618.242 224.158 630.644C212.579 639.907 200.3 648.407 187.173 655.34C164.872 667.12 138.632 676.512 113.054 674.238C86.3384 671.864 65.2823 651.78 50.4114 630.914C44.9207 623.21 39.8398 615.375 35.0888 607.209C33.6551 604.745 32.264 602.547 30.4019 600.419" stroke="black" stroke-width="3" stroke-linecap="round"/>
<path id="Vector 40" d="M29.6051 600.736C29.8303 604.915 30.225 609.074 30.529 613.247C30.6422 614.801 30.5976 616.345 30.8177 617.886" stroke="black" stroke-width="3" stroke-linecap="round"/>
<path id="Vector 41" d="M29.6051 599.523C34.2113 603.424 39.3132 606.746 44.3296 610.09" stroke="black" stroke-width="3" stroke-linecap="round"/>
<path id="Vector 42" d="M2.23486 582.72C6.28404 587.844 10.1796 593.12 14.3609 598.137" stroke="black" stroke-width="3" stroke-linecap="round"/>
<path id="Vector 43" d="M9.16406 573.712C13.0775 579.335 17.1791 584.795 21.6366 589.996" stroke="black" stroke-width="3" stroke-linecap="round"/>
<path id="Vector 44" d="M6.91211 589.303C9.04215 587.849 11.182 586.411 13.3216 584.972" stroke="black" stroke-width="3" stroke-linecap="round"/>
<path id="Vector 45" d="M18.6917 579.775C20.3233 578.458 23.7273 575.369 21.2516 573.096C19.7022 571.674 19.1399 574.408 19.2883 575.464C19.7299 578.603 25.2064 585.582 28.3925 581.334" stroke="black" stroke-width="3" stroke-linecap="round"/>
<path id="Vector 46" d="M23.3689 567.476C25.3185 569.985 27.3606 572.334 29.6052 574.578C29.7783 574.751 30.9077 575.99 30.7408 575.752C29.2824 573.68 28.2962 571.403 30.1248 569.208" stroke="black" stroke-width="3" stroke-linecap="round"/>
<path id="Vector 47" d="M36.8807 566.09C38.1661 564.892 39.7177 563.354 41.3751 564.839C42.7482 566.069 43.0171 568.34 42.3086 569.997C41.7304 571.35 40.1556 572.555 38.6323 572.442C36.6128 572.292 36.8006 569.738 36.7075 568.342" stroke="black" stroke-width="3" stroke-linecap="round"/>
<path id="Vector 48" d="M31.1642 587.57L35.4949 591.901" stroke="black" stroke-width="3" stroke-linecap="round"/>
<path id="Vector 49" d="M32.3768 596.059C35.258 594.258 38.169 592.506 41.0383 590.689" stroke="black" stroke-width="3" stroke-linecap="round"/>
<path id="Vector 50" d="M27.8728 591.728C30.9784 588.677 34.2531 585.876 37.5736 583.066" stroke="black" stroke-width="3" stroke-linecap="round"/>
<path id="Vector 51" d="M42.0776 579.948C42.9363 581.402 43.7108 582.868 44.4644 584.375C44.8682 585.183 44.5221 583.645 44.5221 583.413C44.5221 582.323 44.4299 580.017 45.7924 579.583C47.039 579.185 48.99 580.413 49.7671 581.334C50.1006 581.729 50.5682 583.063 50.7102 582.566C50.766 582.371 50.595 581.913 50.5659 581.738C50.3706 580.567 50.2955 579.384 50.3734 578.197C50.4232 577.438 50.4579 574.029 51.8747 574.059C54.0846 574.105 56.0095 576.913 57.3218 578.389" stroke="black" stroke-width="3" stroke-linecap="round"/>
<path id="Vector 52" d="M63.3848 565.744C62.1729 566.743 60.6904 567.695 60.5651 569.401C60.5003 570.282 60.5616 571.551 61.4986 571.961C63.0327 572.632 64.0504 571.087 63.9623 569.689C63.8894 568.533 63.3588 567.206 62.7978 566.196C62.709 566.036 63.1656 566.254 63.3271 566.34C64.3859 566.903 65.5466 567.256 66.6762 567.649" stroke="black" stroke-width="3" stroke-linecap="round"/>
<path id="Vector 53" d="M70.6605 558.121C69.7803 559.41 68.3518 561.014 68.909 562.712C69.2831 563.852 70.0898 563.443 70.5643 562.664C71.4586 561.195 71.3986 559.939 72.8932 561.605C73.7183 562.525 74.4524 563.531 74.9335 564.675C75.6317 566.336 76.5284 568.464 76.2231 570.305C75.6156 573.969 73.0608 575.518 69.9676 576.83" stroke="black" stroke-width="3" stroke-linecap="round"/>
<path id="Vector 54" d="M76.5504 558.641C76.5673 558.606 78.1397 555.537 76.993 556.158C75.9331 556.732 76.1509 558.865 76.3098 559.854C76.8111 562.973 80.3893 563.81 82.4402 561.759" stroke="black" stroke-width="3" stroke-linecap="round"/>
<g id="burger">
<path id="Vector 55" d="M254.802 570.168C256.826 562.178 258.86 554.79 265.16 549.153C269.446 545.319 274.383 542.255 279.757 540.232C293.697 534.984 309.68 532.655 324.487 531.608C339.452 530.55 354.474 528.75 369.491 528.684C387.514 528.605 406.041 527.205 423.812 531.013C433.708 533.134 443.776 535.462 452.509 540.777C459.128 544.806 465.981 550.277 469.113 557.678C472.268 565.137 470.699 572.756 470.699 580.428" stroke="black" stroke-width="3" stroke-linecap="round"/>
<path id="Vector 56" d="M256.14 569.722C256.178 574.928 254.489 583.356 261.319 584.194C267.218 584.919 273.504 584.124 279.385 583.55C303.883 581.16 328.611 580.829 353.184 579.734C380.816 578.502 408.39 577.305 436.054 577.305C441.891 577.305 448.327 576.987 454.095 578.197C457.777 578.97 461.302 580.24 464.9 581.32" stroke="black" stroke-width="3" stroke-linecap="round"/>
<path id="Vector 57" d="M273.536 601.839C277.068 600.845 282.443 598.385 286.15 600.079C287.721 600.797 289.021 601.992 290.735 602.434C294.107 603.303 298.218 602.225 301.589 601.864C305.643 601.429 309.489 601.896 313.509 601.74C322.09 601.407 330.396 599.609 339.009 599.609C344.611 599.609 349.526 600.436 354.993 601.393C363.533 602.887 372.46 601.803 381.064 601.393C384.385 601.235 387.682 600.73 391.001 600.6C396.375 600.39 401.62 601.361 407.01 600.848C414.107 600.172 420.919 598.27 428.074 598.27C436.325 598.27 444.148 596.991 451.964 594.256" stroke="black" stroke-width="3" stroke-linecap="round"/>
<path id="Vector 58" d="M290.487 596.04C296.036 594.592 301.751 592.387 307.562 592.521C311.311 592.608 313.673 594.246 316.359 596.585C322.598 602.019 329.479 601.625 337.423 600.055C346.977 598.166 356.536 594.695 366.269 593.909C371.7 593.47 377.448 595.729 382.922 595.941C391.114 596.259 399.305 595.148 407.506 595.148C417.009 595.148 426.513 594.814 436.004 594.355C442.051 594.062 448.221 593.889 453.847 591.381C457.184 589.894 459.414 588.094 463.115 587.565" stroke="black" stroke-width="3" stroke-linecap="round"/>
<path id="Vector 59" d="M286.472 608.53C286.014 610.026 283.775 614.649 287.216 614.131C290.755 613.597 293.881 612.443 297.55 612.867C300.75 613.236 303.548 614.733 306.446 616.014C309.945 617.56 313.39 618.199 317.226 618.021C323.682 617.722 329.787 615.28 336.234 614.874C342.251 614.495 348.302 614.328 354.324 613.982C359.455 613.687 364.069 615.235 369.045 616.088C376.6 617.384 384.555 615.522 391.844 613.635C399.709 611.598 407.219 608.617 414.99 606.3C422.317 604.114 430.106 604.069 437.69 604.069" stroke="black" stroke-width="3" stroke-linecap="round"/>
<path id="Vector 60" d="M279.781 630.833C289.995 631.354 300.015 632.374 310.164 633.634C317.138 634.499 324.211 635.812 331.228 634.551C335.681 633.75 339.999 632.353 344.486 631.626C349.028 630.891 353.627 630.617 358.166 629.867C362.708 629.116 367.886 626.866 372.514 628.107C376.477 629.171 379.823 630.501 384.013 630.04C391.377 629.23 398.43 626.562 405.622 624.911C412.712 623.283 419.979 623.116 427.133 621.912C437.155 620.226 446.325 617.287 455.532 612.991" stroke="black" stroke-width="3" stroke-linecap="round"/>
<path id="Vector 61" d="M256.14 637.97C263.741 661.079 286.244 676.818 308.578 684.337C320.245 688.264 331.976 689.489 344.065 691.152C358.119 693.085 372.571 692.881 386.664 691.276C401.096 689.631 414.936 686.067 429.165 683.222C438.721 681.31 448.016 678.035 456.598 673.433C468.129 667.25 474.897 655.617 473.796 642.406C473.581 639.819 472.18 637.109 470.922 634.873C470.345 633.848 470.094 632.697 469.534 631.701C468.631 630.095 466.759 629.383 465.247 628.504C456.827 623.609 446.054 627.571 437.392 629.842C427.63 632.401 417.801 634.271 407.877 636.161C388.851 639.785 369.853 643.112 350.657 645.653C330.972 648.258 311.651 646.595 292.073 643.769C286.792 643.007 281.595 642.319 276.386 641.142C273.746 640.546 271.276 639.304 268.63 638.863" stroke="black" stroke-width="3" stroke-linecap="round"/>
<path id="Vector 62" d="M300.301 594.702C291.951 600.289 283.733 606.099 275.296 611.553C274.315 612.187 271.23 614.804 269.621 614.23C268.189 613.718 268.63 610.546 268.63 609.422" stroke="black" stroke-width="3" stroke-linecap="round"/>
<path id="Vector 63" d="M348.476 589.795C337.597 590.108 326.76 591.202 315.888 591.679C311.635 591.865 307.731 591.994 303.646 590.935C299.638 589.896 296.291 593.708 294.948 596.932" stroke="black" stroke-width="3" stroke-linecap="round"/>
<path id="Vector 64" d="M388.622 601.839C385.447 602.811 367.873 608.184 363.444 609.571C361.572 610.157 359.698 610.741 357.843 611.38C356.594 611.81 355.866 611.6 355.663 612.619C355.019 615.837 353.168 618.453 350.558 620.499C343.841 625.764 335.809 627.756 327.511 626.373" stroke="black" stroke-width="3" stroke-linecap="round"/>
<path id="Vector 65" d="M295.84 553.664V557.678" stroke="black" stroke-width="3" stroke-linecap="round"/>
<path id="Vector 66" d="M393.529 539.389C392.602 539.783 392.015 540.154 391.298 540.728" stroke="black" stroke-width="3" stroke-linecap="round"/>
<path id="Vector 67" d="M424.308 564.815L423.861 567.046" stroke="black" stroke-width="3" stroke-linecap="round"/>
<path id="Vector 68" d="M365.873 562.139L364.98 564.369" stroke="black" stroke-width="3" stroke-linecap="round"/>
<path id="Vector 69" d="M329.741 545.634C329.943 547.127 330.072 548.598 330.187 550.095" stroke="black" stroke-width="3" stroke-linecap="round"/>
<path id="Vector 70" d="M275.767 563.031C275.767 564.57 276.203 566.614 275.321 567.938" stroke="black" stroke-width="3" stroke-linecap="round"/>
<path id="Vector 71" d="M292.271 573.737C291.875 574.692 291.438 575.529 290.933 576.413" stroke="black" stroke-width="3" stroke-linecap="round"/>
<path id="Vector 72" d="M312.344 559.909C312.6 561.879 312.59 563.741 312.344 565.707" stroke="black" stroke-width="3" stroke-linecap="round"/>
<path id="Vector 73" d="M327.511 572.845C327.155 575.453 325.668 576.219 323.496 577.305" stroke="black" stroke-width="3" stroke-linecap="round"/>
<path id="Vector 74" d="M362.304 544.742C360.555 546.986 358.86 548.971 356.505 550.541" stroke="black" stroke-width="3" stroke-linecap="round"/>
<path id="Vector 75" d="M386.392 565.707C385.756 567.738 385.006 569.577 384.161 571.506" stroke="black" stroke-width="3" stroke-linecap="round"/>
<path id="Vector 76" d="M418.063 546.08C417.474 548.786 416.619 550.43 415.386 552.771" stroke="black" stroke-width="3" stroke-linecap="round"/>
<path id="Vector 77" d="M445.719 559.909C445.479 562.735 444.499 565.31 443.488 567.938" stroke="black" stroke-width="3" stroke-linecap="round"/>
<path id="Vector 78" d="M434.121 542.066L432.337 546.973" stroke="black" stroke-width="3" stroke-linecap="round"/>
<path id="Vector 79" d="M405.127 563.031C405.019 564.9 404.493 565.847 403.788 567.492" stroke="black" stroke-width="3" stroke-linecap="round"/>
<path id="Vector 80" d="M393.529 549.649C393.16 551.327 392.657 551.914 391.745 553.218" stroke="black" stroke-width="3" stroke-linecap="round"/>
<path id="Vector 81" d="M452.856 649.568V656.259" stroke="black" stroke-width="3" stroke-linecap="round"/>
<path id="Vector 82" d="M433.229 658.49C432.614 659.882 431.876 660.851 430.999 662.058" stroke="black" stroke-width="3" stroke-linecap="round"/>
<path id="Vector 83" d="M418.509 643.769L416.724 645.108" stroke="black" stroke-width="3" stroke-linecap="round"/>
<path id="Vector 84" d="M408.249 664.734C407.968 666.079 407.844 667.37 406.911 668.303" stroke="black" stroke-width="3" stroke-linecap="round"/>
<path id="Vector 85" d="M378.363 658.49C377.309 659.351 376.854 660.083 376.132 661.166" stroke="black" stroke-width="3" stroke-linecap="round"/>
<path id="Vector 86" d="M400.22 653.583V659.382" stroke="black" stroke-width="3" stroke-linecap="round"/>
<path id="Vector 87" d="M340.893 655.813C339.541 659.53 338.285 663.272 336.878 666.965" stroke="black" stroke-width="3" stroke-linecap="round"/>
<path id="Vector 88" d="M315.021 666.073C314.974 668.248 314.654 670.218 314.129 672.318" stroke="black" stroke-width="3" stroke-linecap="round"/>
<path id="Vector 89" d="M297.178 657.151C297.113 658.492 296.868 658.809 296.286 659.828" stroke="black" stroke-width="3" stroke-linecap="round"/>
<path id="Vector 90" d="M317.697 654.475C317.671 656.461 317.481 658.317 317.251 660.274" stroke="black" stroke-width="3" stroke-linecap="round"/>
<path id="Vector 91" d="M303.423 661.166C303.391 663.118 303.253 665.034 302.977 666.965" stroke="black" stroke-width="3" stroke-linecap="round"/>
<path id="Vector 92" d="M339.555 678.117L339.109 681.239" stroke="black" stroke-width="3" stroke-linecap="round"/>
<path id="Vector 93" d="M352.491 672.318V675.886" stroke="black" stroke-width="3" stroke-linecap="round"/>
<path id="Vector 94" d="M357.397 659.828C357.432 661.332 357.631 662.805 357.843 664.288" stroke="black" stroke-width="3" stroke-linecap="round"/>
<path id="Vector 95" d="M371.225 683.023V686.592" stroke="black" stroke-width="3" stroke-linecap="round"/>
<path id="Vector 96" d="M384.607 674.994L385.053 677.67" stroke="black" stroke-width="3" stroke-linecap="round"/>
<path id="Vector 97" d="M356.951 671.872V674.102" stroke="black" stroke-width="3" stroke-linecap="round"/>
<path id="Vector 98" d="M387.284 664.734C387.586 666.004 388.015 666.764 388.622 667.857" stroke="black" stroke-width="3" stroke-linecap="round"/>
<path id="Vector 99" d="M418.063 655.367L417.616 658.936" stroke="black" stroke-width="3" stroke-linecap="round"/>
<path id="Vector 100" d="M417.17 676.332C415.007 678.58 413.48 679.448 410.925 680.793" stroke="black" stroke-width="3" stroke-linecap="round"/>
<path id="Vector 101" d="M400.22 676.332L398.436 679.009" stroke="black" stroke-width="3" stroke-linecap="round"/>
<path id="Vector 102" d="M441.704 649.122L443.934 644.661" stroke="black" stroke-width="3" stroke-linecap="round"/>
<path id="Vector 103" d="M441.704 666.073V668.749" stroke="black" stroke-width="3" stroke-linecap="round"/>
</g>
<path id="Vector 119" d="M540.647 750.012C541.522 756.681 542.287 763.345 542.313 770.079C542.323 772.594 542.273 775.083 542.498 777.587C542.6 778.72 542.794 780.387 542.538 781.54C542.375 782.271 541.442 782.377 540.846 782.518C537.182 783.384 533.418 784.201 529.675 784.633C527.532 784.881 525.428 784.99 523.277 784.99" stroke="black" stroke-width="3" stroke-linecap="round"/>
<path id="Vector 120" d="M197.563 412.529C185.062 413.188 172.54 414.425 160.015 414.425C158.864 414.425 158.265 414.526 158.034 413.172C157.569 410.446 157.558 407.574 157.455 404.817C157.286 400.339 156.998 395.888 156.707 391.416C156.387 386.503 156.242 381.527 155.274 376.688" stroke="black" stroke-width="3" stroke-linecap="round"/>
</g>
<g id="content">
<path id="Vector 13" d="M525.151 453.735C673.104 447.269 820.645 448.16 968.47 454.668C1001.19 456.109 1033.57 460.457 1066.32 460.457" stroke="black" stroke-width="3" stroke-linecap="round"/>
<path id="Vector 14" d="M533.554 465.499C535.415 480.829 537.981 495.874 538.596 511.25C539.062 522.91 598.007 517.6 603.208 517.6C717.926 517.6 832.587 517.711 947.275 519.374C979.263 519.837 1011.19 522.642 1043.17 522.642C1044.81 522.642 1057.18 523.973 1057.82 521.708C1061.77 507.908 1059.6 491.574 1059.6 477.264" stroke="black" stroke-width="3" stroke-linecap="round"/>
<path id="Vector 15" d="M535 573.422C682.954 566.957 830.494 567.848 978.319 574.356C1011.03 575.796 1043.41 580.145 1076.17 580.145" stroke="black" stroke-width="3" stroke-linecap="round"/>
<path id="Vector 16" d="M543.403 585.187C545.265 600.517 547.83 615.562 548.445 630.938C548.912 642.597 607.857 637.287 613.057 637.287C727.775 637.287 842.437 637.399 957.124 639.061C989.112 639.525 1021.04 642.329 1053.02 642.329C1054.66 642.329 1067.03 643.66 1067.67 641.395C1071.62 627.596 1069.45 611.262 1069.45 596.952" stroke="black" stroke-width="3" stroke-linecap="round"/>
<path id="Vector 26" d="M1117.44 438.741C1128.05 431.516 1143.95 421.072 1155.55 432.451C1161.51 438.299 1163.09 449.163 1162.51 457.114C1162 463.921 1159.05 470.28 1155.98 476.284C1153.26 481.619 1150.75 487.521 1147.7 492.66C1144.69 497.724 1143.27 503.71 1141.87 509.368C1139.33 519.618 1137.91 529.49 1138.54 540.121C1139.44 555.22 1147.94 566.339 1161.71 571.973C1162.36 572.239 1164.72 572.696 1164.77 573.537C1164.93 576.337 1163.72 579.071 1163.6 581.891C1162.67 604.233 1166.84 626.212 1164.04 648.556C1161.72 666.991 1152.21 686.764 1134.05 693.954C1121.31 698.995 1107.92 698.879 1101.27 685.567" stroke="black" stroke-width="3" stroke-linecap="round"/>
<path id="Vector 27" d="M1164.77 577.73C1192.12 576.616 1219.49 576.085 1246.84 575.334" stroke="black" stroke-width="3" stroke-linecap="round"/>
<path id="Vector 28" d="M1248.49 577.416C1245.57 575.311 1242.57 573.365 1239.6 571.344C1237.76 570.098 1243.54 573.371 1245.45 574.499C1246.47 575.105 1247.3 575.852 1248.24 576.559C1248.54 576.786 1248.87 576.815 1248.82 577.252C1248.74 578.037 1247.37 578.76 1246.83 579.13C1245.68 579.934 1244.36 580.516 1243.24 581.355" stroke="black" stroke-width="3" stroke-linecap="round"/>
<path id="Vector 29" d="M1263.52 566.698C1263.74 570.534 1263.91 574.349 1263.48 578.178C1263.38 579.131 1263.26 580.417 1262.81 581.301C1262.6 581.694 1262.09 577.996 1262.07 577.64C1261.96 574.962 1262.77 572.043 1264.2 569.782C1266.8 565.687 1272.96 559.963 1277.65 564.689C1279.87 566.923 1280.47 570.548 1280.85 573.502C1281.23 576.431 1281.61 579.493 1281.61 582.455" stroke="black" stroke-width="3" stroke-linecap="round"/>
<path id="Vector 30" d="M1264.42 576.546C1268.59 575.383 1272.86 574.714 1277.13 574.039" stroke="black" stroke-width="3" stroke-linecap="round"/>
<path id="Vector 31" d="M1287.16 569.921C1287.75 572.407 1288.43 574.869 1288.57 577.431C1288.58 577.521 1288.54 579.443 1288.45 579.371C1288.02 579.036 1287.85 577.488 1287.84 577.034C1287.81 574.033 1289.02 571.458 1290.88 569.195C1291.88 567.98 1293.15 566.956 1294.84 567.255C1297.12 567.659 1298.23 569.515 1299.24 571.373C1300.3 573.299 1301.19 575.366 1301.66 577.521C1301.83 578.283 1301.76 579.294 1302.2 579.948" stroke="black" stroke-width="3" stroke-linecap="round"/>
<path id="Vector 32" d="M1304.89 567.235C1305.33 570.037 1305.65 572.857 1306.14 575.651" stroke="black" stroke-width="3" stroke-linecap="round"/>
<path id="Vector 33" d="M1313.3 558.641C1313.96 565.081 1314.38 571.524 1314.38 577.998C1314.38 578.363 1314.33 581.534 1314.2 581.381C1313.32 580.359 1313.36 578.08 1313.33 576.835C1313.29 574.789 1313.7 572.791 1314.51 570.916C1315.01 569.779 1316.29 567.219 1317.65 566.937C1319.88 566.472 1320.82 569.661 1321.15 571.234C1321.65 573.594 1321.45 575.872 1321.26 578.257C1321.25 578.42 1321.12 580.74 1321.19 579.341C1321.41 575.129 1323.15 569.883 1326.33 566.967C1326.88 566.469 1327.8 565.642 1328.62 565.843C1329.91 566.159 1330.11 569.216 1330.19 570.16C1330.56 574.296 1329.43 578.892 1331.56 582.634" stroke="black" stroke-width="3" stroke-linecap="round"/>
<path id="Vector 34" d="M1346.39 566.227C1342.42 568.548 1338.09 572.374 1337.02 577.054C1336.7 578.455 1337.08 580.465 1338.84 580.572C1342.83 580.812 1344.53 573.629 1345.21 570.734C1345.37 570.068 1345.51 569.324 1345.51 568.637C1345.51 567.865 1346.18 570.026 1346.49 570.734C1347.63 573.383 1348.69 576.044 1350.09 578.573" stroke="black" stroke-width="3" stroke-linecap="round"/>
<path id="Vector 35" d="M1355.74 558.642C1356.3 562.349 1356.93 566.061 1357.11 569.813C1357.22 572.191 1357.15 574.586 1357.15 576.966C1357.15 578.521 1356.94 580.229 1357.32 581.748" stroke="black" stroke-width="3" stroke-linecap="round"/>
<path id="Vector 36" d="M1351.5 571.87C1354.38 572.064 1357.26 572.014 1360.15 572.047" stroke="black" stroke-width="3" stroke-linecap="round"/>
<path id="Vector 37" d="M1365.56 572.46C1366.93 572.064 1376.41 569.53 1372.73 566.208C1371.18 564.803 1369.14 567.039 1368.58 568.396C1367.33 571.418 1368.12 574.899 1369.84 577.561C1370.6 578.745 1372.04 578.973 1373.35 578.659C1374.45 578.397 1375.12 577.51 1375.79 576.693" stroke="black" stroke-width="3" stroke-linecap="round"/>
<path id="Vector 38" d="M1387.7 561.044C1387.72 564.684 1387.71 568.353 1387.97 571.985C1388.07 573.349 1388.31 574.687 1388.45 576.043C1388.46 576.198 1388.58 576.972 1388.34 576.557C1387.69 575.437 1386.9 574.31 1385.78 573.605C1384.87 573.025 1383.83 572.68 1382.84 573.239C1381.78 573.838 1381.22 575.183 1381.37 576.371C1381.58 578.055 1382.77 579.067 1384.42 579.151C1385.3 579.197 1386.12 578.729 1386.67 578.068" stroke="black" stroke-width="3" stroke-linecap="round"/>
<path id="Vector 104" d="M564.023 685.513C576.236 683.262 588.706 682.33 601.058 681.192C614.177 679.984 627.265 679.014 640.429 678.569C649.627 678.258 658.782 677.974 667.985 677.974" stroke="black" stroke-width="3" stroke-linecap="round"/>
<path id="Vector 121" d="M1051.89 652.775C1061.98 652.482 1072.03 651.124 1082.14 651.124C1082.44 651.124 1082.98 651.229 1083.23 650.968C1083.9 650.244 1083.64 648.487 1083.64 647.646C1083.64 640.405 1084.52 633.212 1084.52 625.98" stroke="black" stroke-width="3" stroke-linecap="round"/>
<path id="Vector 122" d="M539.122 442.461C531.78 443.088 524.316 444.05 516.938 444.05C515.293 444.05 515.443 444.382 515.349 446.227C514.888 455.26 514.76 464.394 514.76 473.443" stroke="black" stroke-width="3" stroke-linecap="round"/>
</g>
<g id="image-title">
<path id="Vector 123" d="M563 7C565.051 22.5786 566.542 38.0844 567.514 53.7485C567.705 56.8316 568 59.91 568 63" stroke="black" stroke-width="3" stroke-linecap="round"/>
<path id="Vector 124" d="M587 9C590.605 26.5556 593.281 44.205 595 62" stroke="black" stroke-width="3" stroke-linecap="round"/>
<path id="Vector 125" d="M563 41C574.663 39.7226 586.307 38.8233 598 38" stroke="black" stroke-width="3" stroke-linecap="round"/>
<path id="Vector 126" d="M610.527 33.7151C615.713 23.9807 623.063 13 635.449 13C641.61 13 647.981 16.0238 652.371 20.1769C656.503 24.0846 658.143 30.9382 657.99 36.4228C657.815 42.7276 654.079 50.329 648.967 54.1692C641.2 60.0039 628.029 62.1062 619.121 57.4641C614.595 55.1057 611.645 51.5189 609.866 46.8292C608.135 42.265 609.284 37.8311 610.825 33.4215" stroke="black" stroke-width="3" stroke-linecap="round"/>
<path id="Vector 127" d="M680.925 14.7095C681.32 23.512 681.575 32.3632 681.174 41.1702C681.171 41.2261 681.197 46.33 680.394 46.9314C679.772 47.3965 680.065 45.3739 680.095 44.5861C680.354 37.8329 681.767 31.1026 684.609 24.9913C686.898 20.0706 689.718 14.8513 694.152 11.6335C696.965 9.5924 701.068 6.82939 704.725 7.60577C709.621 8.6455 712.045 12.4595 713.952 16.8848C717.333 24.7274 716.686 34.3856 715.048 42.5807C715.042 42.6072 714.714 44.7111 714.533 44.6371C713.556 44.2369 716.577 34.5551 716.79 33.8455C720.643 21.0583 729.345 7.6676 742.001 2.7793C744.454 1.83161 746.997 1.64044 749.436 2.81328C753.835 4.92851 755.201 10.9393 755.942 15.3553C757.49 24.577 756.112 33.9777 758 43.1586" stroke="black" stroke-width="3" stroke-linecap="round"/>
<path id="Vector 128" d="M783 26.3033C790.462 23.6627 799.123 20.6619 804.03 14.1047C805.728 11.8355 803.237 9.16581 801.188 8.15681C793.389 4.3171 784.363 10.6056 783.854 18.6451C783.324 27.0329 786.262 36.6403 793.344 41.8617C795.952 43.7842 799.305 45.3835 802.663 44.9189C805.417 44.5378 806.949 43.5147 809 41.8314" stroke="black" stroke-width="3" stroke-linecap="round"/>
<path id="Vector 129" d="M631 85C634.485 101.159 636.265 117.539 638 134" stroke="black" stroke-width="3" stroke-linecap="round"/>
<path id="Vector 130" d="M624 88.163C631.189 85.2321 654.096 72.0264 661.61 81.1865C665.782 86.2733 659.555 93.6897 656.148 97.2051C652.797 100.663 647.211 105 642.127 105" stroke="black" stroke-width="3" stroke-linecap="round"/>
<path id="Vector 131" d="M675.995 102C673.677 105.387 670.387 109.735 668.766 113.651C668.121 115.209 667.51 117.535 668.591 119.157C669.932 121.171 673.008 119.078 674.094 118.027C677.06 115.155 676.295 109.839 675.77 106.191C675.686 105.605 674.546 101.715 675.995 102.664C679.075 104.681 681.927 107.037 685 109.079" stroke="black" stroke-width="3" stroke-linecap="round"/>
<path id="Vector 132" d="M710.258 93C706.576 94.5779 700.161 97.6283 700.03 102.341C699.981 104.113 702.015 105.74 703.705 105.726C707.859 105.692 709.171 101.157 712.211 99.3505C713.154 98.7904 713.586 102.795 713.599 102.863C714.459 107.501 713.842 112.147 712.635 116.684C711.534 120.825 709.376 124.957 705.799 127.514C703.172 129.392 700.928 129.203 698 128.507" stroke="black" stroke-width="3" stroke-linecap="round"/>
<path id="Vector 133" d="M729.229 102.571C730.351 100.461 731.982 98.094 731.572 95.5226C731.342 94.082 729.738 92.4011 728.23 93.2113C724.896 95.0026 724.659 99.9251 725.258 103.155C726.167 108.063 729.657 114 735 114" stroke="black" stroke-width="3" stroke-linecap="round"/>
</g>
</g>
</svg>
