<svg width="1156" height="715" viewBox="0 0 1156 715" fill="none" xmlns="http://www.w3.org/2000/svg">
<path d="M2 48.3286C145.608 30.5855 289.441 13.9224 434.064 7.25958C582.071 0.440845 729.749 3.86885 877.542 13.3024C952.13 18.0634 1027.91 22.347 1102.02 32.6619C1117.53 34.8201 1140.04 35.22 1154.17 42.2857" stroke="black" stroke-width="3" stroke-linecap="round"/>
<path d="M52.3569 6.02856C63.506 184.413 51.1731 363.729 74.5141 541.38C81.3395 593.33 96.4965 643.683 106.743 694.914" stroke="black" stroke-width="3" stroke-linecap="round"/>
<path d="M1130 2C1123.14 53.2413 1113.21 103.801 1110.75 155.533C1107.05 233.24 1102.03 311.15 1101.8 388.966C1101.65 438.801 1098.87 489.668 1102.92 539.366C1104.58 559.735 1105.83 579.807 1105.83 600.242" stroke="black" stroke-width="3" stroke-linecap="round"/>
<path d="M98.6855 713.042C301.524 669.968 506.894 665.342 713.266 657.761C847.983 652.812 983.8 650.617 1117.91 636.499" stroke="black" stroke-width="3" stroke-linecap="round"/>
<path d="M52.3569 116.814C307.312 93.1298 565.881 97.9295 821.366 110.771C923.69 115.915 1025.45 126.886 1127.98 126.886" stroke="black" stroke-width="3" stroke-linecap="round"/>
<path d="M413.886 406.293C397.348 401.894 383.39 398.501 375.928 382.279C368.574 366.292 368.529 350.82 373.234 333.969C378.531 314.997 389.617 297.456 403.251 283.39C418.616 267.537 435.525 257.532 455.484 248.599C502.971 227.346 561.443 230.271 611.666 236.781C665.777 243.796 722.478 257.833 758.299 302.251C779.972 329.125 792.999 368.296 782.737 402.322C778.714 415.663 772.973 427.482 763.876 438.153C755.691 447.755 743.641 455.073 732.962 461.599C713.284 473.624 697.437 490.181 690.891 512.793C688.256 521.896 688.312 534.863 692.12 543.566C694.314 548.58 697.375 553.339 700.581 557.747C702.039 559.751 702.428 562.034 704.883 562.852" stroke="black" stroke-width="3" stroke-linecap="round"/>
<path d="M415.588 411.398C429.913 415.081 443.738 419.755 458.179 422.932C474.742 426.576 491.406 428.816 508.286 430.542C522.992 432.046 538.126 432.563 552.673 435.222C560.754 436.699 569.415 434.684 577.253 436.924" stroke="black" stroke-width="3" stroke-linecap="round"/>
<path d="M569.595 437.775C564.845 448.986 560.834 458.115 562.599 470.297C564.029 480.167 566.93 489.488 572.715 497.714C586.153 516.82 606.916 521.709 629.345 520.12C650.458 518.624 677.655 503.181 677.655 479.467" stroke="black" stroke-width="3" stroke-linecap="round"/>
<path d="M675.954 482.871C677.579 490.901 678.63 499.202 683.611 505.844" stroke="black" stroke-width="3" stroke-linecap="round"/>
<path d="M510.097 241.591C499.366 247.085 489.792 253.182 482.64 263.043C475.197 273.305 477.701 284.76 484.238 294.519C491.237 304.967 501.585 312.768 509.147 322.776C514.919 330.415 519.161 340.712 517.313 350.385C513.09 372.494 487.746 375.253 471.816 385.642C467.423 388.508 463.993 392.433 463.521 397.87C462.814 406.002 467.385 411.974 472.767 417.356" stroke="black" stroke-width="3" stroke-linecap="round"/>
<path d="M589.036 252.09C577.776 254.546 565.192 258.903 557.582 268.098C549.484 277.883 553.771 289.227 560.52 298.192C568.401 308.661 579.577 317.491 584.802 329.733C589.578 340.922 584.891 351.275 576.55 358.984C568.62 366.312 557.646 370.079 550.258 377.995C544.546 384.115 551.471 393.446 553.413 399.641C555.482 406.243 556.017 412.779 552.311 418.868C548.886 424.494 543.295 426.68 536.929 427.077" stroke="black" stroke-width="3" stroke-linecap="round"/>
<path d="M667.7 271.576C659.851 272.165 651.919 272.56 644.373 274.992C639.124 276.683 634.448 279.55 630.007 282.788C622.602 288.187 616.068 296.942 616.867 306.577C617.738 317.086 622.986 326.712 623.497 337.277C624.009 347.855 617.929 356.748 610.638 363.799C604.978 369.274 597.23 374.111 593.118 380.998C588.884 388.089 590.438 394.375 591.671 402.014C592.816 409.104 592.342 416.872 588.095 422.991C584.452 428.238 578.167 432.759 572.222 435.046" stroke="black" stroke-width="3" stroke-linecap="round"/>
<path d="M713.936 297.722C705.513 298.872 697.784 300.134 689.939 303.485C683.814 306.102 677.712 309.792 672.781 314.279C667.585 319.007 662.662 324.503 660.223 331.18C658.051 337.127 658.007 343.733 658.675 349.972C660.176 363.98 665.913 377.356 666.631 391.514C666.893 396.686 666.734 401.869 665.083 406.824C663.395 411.888 660.531 415.327 656.697 418.908C649.138 425.97 640.079 430.893 632.142 437.443C629.332 439.762 627.294 442.083 626.96 445.872C626.608 449.854 629.282 453.67 630.851 457.139C634.519 465.242 629.416 471.943 623.025 476.878C615.697 482.536 606.86 484.63 597.824 483.5" stroke="black" stroke-width="3" stroke-linecap="round"/>
<path d="M751.083 352.426C742.915 352.99 735.834 354.257 728.179 357.26C723.314 359.169 718.808 361.927 714.806 365.284C711.11 368.384 707.993 371.707 706.371 376.324C704.589 381.4 705.247 387.227 706.371 392.371C708.208 400.776 710.886 409.369 708.394 417.95C705.567 427.69 697.486 434.584 689.056 439.62C682.066 443.796 674.207 447.236 668.415 453.13C664.055 457.565 663.769 462.997 664.197 468.868C664.696 475.709 663.364 481.804 659.26 487.4C654.292 494.175 645.771 498.54 638.138 501.476" stroke="black" stroke-width="3" stroke-linecap="round"/>
<path d="M766.821 374.027C757.795 375.753 749.406 378.48 741.945 383.971C735.582 388.654 731.812 393.674 730.939 401.663C730.166 408.74 731.778 415.8 730.579 422.853C729.03 431.964 724.182 438.918 717.309 444.935C710.333 451.042 702.487 455.857 694.525 460.553C689.546 463.489 683.043 466.566 679.644 471.457C674.865 478.334 675.744 487.387 676.404 495.304" stroke="black" stroke-width="3" stroke-linecap="round"/>
<path d="M459.749 264.443C446.603 266.689 433.532 275.262 430.085 288.843C428.397 295.489 429.55 301.108 431.727 307.434C433.617 312.928 437.233 318.113 436.906 324.108C436.24 336.316 426.131 345.529 416.252 351.456C412.373 353.784 406.451 358.425 401.599 358.425C399.063 358.425 399.811 363.385 399.957 364.909C400.677 372.426 406.028 377.075 409.263 383.436C412.552 389.906 410.464 396.548 403.284 398.89C396.717 401.031 391.874 397.673 387.746 392.911" stroke="black" stroke-width="3" stroke-linecap="round"/>
<path d="M459.37 268.611C461.08 265.482 463.704 261.934 464.296 258.379" stroke="black" stroke-width="3" stroke-linecap="round"/>
<path d="M457.854 267.095C461.179 265.152 464.217 262.876 465.812 259.263C466.922 256.75 467.784 254.1 468.844 251.558" stroke="black" stroke-width="3" stroke-linecap="round"/>
<path d="M474.887 292.76C468.627 300.07 463.578 306.545 462.034 316.247C460.913 323.292 464.687 328.872 469.361 333.873C476.082 341.064 492.118 348.419 485.312 360.5C478.922 371.842 465.078 375.768 457.408 386.038C451.189 394.365 450.772 404.435 450.772 414.465" stroke="black" stroke-width="3" stroke-linecap="round"/>
<path d="M459.815 339.86C457.433 348.72 454.667 360.859 447.004 366.989" stroke="black" stroke-width="3" stroke-linecap="round"/>
<path d="M534.798 284.847C535.802 296.964 535.06 308.7 526.131 317.629" stroke="black" stroke-width="3" stroke-linecap="round"/>
<path d="M522.74 388.09C518.219 396.213 511.133 404.484 502.602 408.583C499.904 409.88 497.13 411.074 494.104 411.074" stroke="black" stroke-width="3" stroke-linecap="round"/>
<path d="M617.325 263.792C608.649 273.677 599.974 283.156 599.219 296.746" stroke="black" stroke-width="3" stroke-linecap="round"/>
<path d="M577.491 368.449C574.436 375.867 571.738 382.921 571.697 391.022C571.673 395.602 572.675 399.56 573.869 403.938" stroke="black" stroke-width="3" stroke-linecap="round"/>
<path d="M643.399 373.881C636.792 382.443 630.795 393.456 620.223 397.42" stroke="black" stroke-width="3" stroke-linecap="round"/>
<path d="M664.765 299.281C660.707 306.181 651.899 317.708 642.313 315.578" stroke="black" stroke-width="3" stroke-linecap="round"/>
<path d="M693.736 319.561C688.04 327.389 683.192 334.563 682.933 344.548C682.833 348.399 684.709 351.935 686.131 355.412" stroke="black" stroke-width="3" stroke-linecap="round"/>
<path d="M688.601 389.099C684.706 396.24 678.476 405.049 678.971 413.674C679.098 415.891 680.091 417.666 681.146 419.541" stroke="black" stroke-width="3" stroke-linecap="round"/>
<path d="M652.677 440.939C653.011 445.231 653.153 449.099 651.761 453.22C650.975 455.547 650.047 457.935 648.746 460.032C647.553 461.952 646.15 463.962 644.327 465.33" stroke="black" stroke-width="3" stroke-linecap="round"/>
<path d="M746.073 407.243C747.028 414.701 745.189 421.287 741.143 427.482C739.67 429.736 737.793 431.618 736.584 434.035" stroke="black" stroke-width="3" stroke-linecap="round"/>
<path d="M719.255 343.965C722.591 339.505 727.231 335.444 732.103 332.723C734.051 331.636 735.887 331.129 738.076 330.866" stroke="black" stroke-width="3" stroke-linecap="round"/>
<path d="M558.477 328.528C559.38 332.631 559.676 336.822 558.17 340.839C557.129 343.614 555.365 346.155 553.394 348.345C551.796 350.121 549.767 352.091 547.219 351.582" stroke="black" stroke-width="3" stroke-linecap="round"/>
<path d="M483.982 318.743C487.291 320.807 489.877 322.794 491.619 326.359C492.74 328.653 493.25 331.075 493.324 333.618C493.393 336.028 493.094 339.014 492.124 341.276" stroke="black" stroke-width="3" stroke-linecap="round"/>
<path d="M404.081 309.505C399.118 314.551 395.347 321.742 395.302 328.99C395.28 332.465 395.506 336.305 397.601 339.186" stroke="black" stroke-width="3" stroke-linecap="round"/>
<path d="M428.328 366.568C430.307 372.622 429.239 379.333 426.33 384.95C425.091 387.342 423.64 390.341 420.803 390.814" stroke="black" stroke-width="3" stroke-linecap="round"/>
<path d="M556.348 241.28C550.586 244.323 544.807 247.953 542.994 254.583C542.388 256.797 542.559 258.904 542.856 261.13" stroke="black" stroke-width="3" stroke-linecap="round"/>
<path d="M519.749 258.339C519.849 261.716 519.795 264.903 518.629 268.109C517.5 271.212 515.765 274.342 513.701 276.923C512.342 278.621 510.449 281.113 508.118 281.446" stroke="black" stroke-width="3" stroke-linecap="round"/>
<path d="M579.455 264.852C577.295 271.231 573.374 276.547 568.134 280.739C566.695 281.891 565.372 283.121 563.637 283.772" stroke="black" stroke-width="3" stroke-linecap="round"/>
<path d="M604.471 430.386C601.586 434.232 599.913 438.774 598.593 443.364C597.433 447.396 596.601 451.694 597.306 455.895C597.934 459.635 599.768 462.98 602.335 465.707" stroke="black" stroke-width="3" stroke-linecap="round"/>
<path d="M638.149 402.129C638.108 405.929 638.043 409.613 636.743 413.227C635.991 415.318 634.988 417.434 633.732 419.269C632.177 421.541 630.506 423.644 627.963 424.8" stroke="black" stroke-width="3" stroke-linecap="round"/>
<path d="M604.471 390.3C602.052 393.376 599.146 397.522 599.414 401.654C599.639 405.115 601.311 407.895 602.992 410.836" stroke="black" stroke-width="3" stroke-linecap="round"/>
<path d="M599.156 315.267C597.454 321.449 595.626 327.644 597.689 333.991C598.359 336.053 599.535 337.971 600.644 339.819" stroke="black" stroke-width="3" stroke-linecap="round"/>
<path d="M736.764 224.73C750.462 232.989 763.177 243.279 773.187 255.837C781.728 266.553 788.637 278.547 795.264 290.505C803.088 304.621 809.655 319.423 814.696 334.761C823.131 360.424 827.29 386.947 820.496 413.558C816.079 430.857 805.324 444.373 792.619 456.391" stroke="black" stroke-width="3" stroke-linecap="round"/>
<path d="M372.219 230.641C359.445 244.262 347.989 258.826 341.535 276.573C333.003 300.037 329.393 324.103 330.512 349.082C331.41 369.095 335.351 388.799 341.7 407.76C344.757 416.888 347.932 426.026 353.101 434.148" stroke="black" stroke-width="3" stroke-linecap="round"/>
<path d="M843.192 366.744C847.443 378.471 851.686 389.876 852.681 402.419C853.961 418.561 851.873 433.526 845.595 448.539C835.322 473.106 820.642 496.53 801.94 515.577C794.618 523.035 786.146 528.468 777.201 533.662" stroke="black" stroke-width="3" stroke-linecap="round"/>
<path d="M288.55 281.913C296.341 244.516 323.818 216.336 355.408 196.754C380.317 181.314 409.359 167.717 439.137 167.717" stroke="black" stroke-width="3" stroke-linecap="round"/>
<path d="M414.419 208.194C465.131 177.516 525.045 164.623 583.9 174.032C604.569 177.336 625.218 182.905 643.543 193.194C651.727 197.79 660.995 202.769 666.868 210.32" stroke="black" stroke-width="3" stroke-linecap="round"/>
<path d="M637.075 144.963C658.487 147.508 679.643 151.478 700.211 158.101C709.064 160.951 717.621 164.706 725.956 168.813C742.152 176.793 758.031 185.803 772.241 197.008C790.769 211.619 805.601 229.968 815.949 251.176C819.182 257.802 821.472 264.583 822.619 271.842" stroke="black" stroke-width="3" stroke-linecap="round"/>
<path d="M308.564 395.308C309.111 410.774 309.294 426.415 312.218 441.671C315.144 456.934 321.102 471.314 328.701 484.814C334.111 494.426 340.453 503.509 348.011 511.562C355.302 519.329 364 524.83 372.758 530.742" stroke="black" stroke-width="3" stroke-linecap="round"/>
<path d="M370.41 461.068C373.935 495.822 389.781 524.234 415.119 548.139C424.938 557.401 435.81 564.943 447.912 570.928C468.304 581.013 489.921 583.41 512.106 587.107" stroke="black" stroke-width="3" stroke-linecap="round"/>
<path d="M471.397 519.782C489.339 554.064 528.329 573.194 564.513 582.584C579.77 586.543 596.028 588.442 611.789 588.325C621.989 588.249 632.072 585.848 642.059 583.976" stroke="black" stroke-width="3" stroke-linecap="round"/>
<path d="M790.018 555.793C756.106 587.234 705.15 622.944 656.15 608.244" stroke="black" stroke-width="3" stroke-linecap="round"/>
<path d="M815.731 204.772C831.335 191.697 847.306 179.371 863.705 167.319" stroke="black" stroke-width="3" stroke-linecap="round"/>
<path d="M302.958 346.195C289.299 351.794 275.703 357.463 262.175 363.366" stroke="black" stroke-width="3" stroke-linecap="round"/>
<path d="M350.614 546.513C342.742 553.221 335.241 560.271 327.632 567.271" stroke="black" stroke-width="3" stroke-linecap="round"/>
<path d="M446.992 613.236C437.342 630.08 426.724 646.088 415.854 662.166" stroke="black" stroke-width="3" stroke-linecap="round"/>
<path d="M375.419 159.275C367.767 150.26 360.048 141.889 351.419 133.836" stroke="black" stroke-width="3" stroke-linecap="round"/>
<path d="M505.979 158.795C511.031 148.425 515.331 137.73 520.858 127.596" stroke="black" stroke-width="3" stroke-linecap="round"/>
<path d="M833.252 333.652C843.104 329.963 852.962 325.544 863.447 324.146" stroke="black" stroke-width="3" stroke-linecap="round"/>
<path d="M864.565 454.432C875.895 453.373 888.479 451.257 899.793 453.314" stroke="black" stroke-width="3" stroke-linecap="round"/>
<path d="M298.044 214.934C286.081 214.226 274.133 213.4 262.188 212.444" stroke="black" stroke-width="3" stroke-linecap="round"/>
<path d="M301.87 478.851C290.095 485.446 279.427 493.622 268.49 501.489" stroke="black" stroke-width="3" stroke-linecap="round"/>
<path d="M410.039 20.7443C456.355 25.2885 502.677 25.0573 549.134 26.4956C592.15 27.8274 635.022 32.8089 677.964 35.4324C730.532 38.6439 783.121 40.2676 835.729 42.6879C850.579 43.3712 865.332 44.5497 880.147 45.6079C883.101 45.8189 889.584 45.4595 891.473 48.7932C895.033 55.0761 888.847 66.0923 888.022 72.5066C887.454 76.9253 889.585 84.3874 887.668 88.4334C885.414 93.1922 879.568 94.626 874.75 95.6005C857.244 99.1409 840.165 97.7604 822.501 96.0429C799.919 93.8475 777.052 94.3381 754.413 92.7691C720.681 90.4312 686.594 90.8225 652.791 90.8225C609.508 90.8225 566.226 90.8225 522.943 90.8225C504.721 90.8225 486.595 90.4946 468.393 89.9819C455.461 89.6176 438.461 91.3781 426.541 85.2481C417.83 80.7682 414.817 71.6562 414.817 62.508C414.817 52.303 414.817 42.0981 414.817 31.8931" stroke="black" stroke-width="3" stroke-linecap="round"/>
<path d="M474.577 40.3982C474.886 49.8395 475.126 59.2379 474.811 68.6784C474.763 70.1205 474.768 71.5621 474.768 73.0046" stroke="black" stroke-width="3" stroke-linecap="round"/>
<path d="M475.344 60.3457C478.905 56.1749 483.409 52.7567 487.832 49.5515C489.326 48.4688 490.871 47.2839 492.478 46.3654C496.334 44.1621 484.791 50.8163 480.885 52.9293C480.172 53.3151 479.505 53.7717 478.796 54.1654C478.455 54.3549 480.68 56.5461 480.799 56.6801C484.414 60.7225 487.401 65.3354 489.537 70.3194" stroke="black" stroke-width="3" stroke-linecap="round"/>
<path d="M499.127 49.9884C499.127 56.6667 498.744 63.3137 498.744 69.9891C498.744 71.2013 498.554 67.5671 498.594 66.3555C498.72 62.5645 499.302 58.9147 500.939 55.4441C502.338 52.4779 504.622 49.8938 507.897 49.0933C510.705 48.4068 513.572 49.5684 515.143 51.9703C517.227 55.158 517.617 59.2184 518.116 62.9031C518.405 65.0414 518.691 67.199 518.691 69.3604" stroke="black" stroke-width="3" stroke-linecap="round"/>
<path d="M523.87 54.9753C526.132 50.1435 532.6 45.0322 537.776 49.2745C542.315 52.9949 541.958 59.4458 539.555 64.299C538.496 66.4396 537.191 68.1765 534.973 69.19C532.44 70.3474 529.287 69.99 527.003 68.4867C522.014 65.2039 521.55 58.9895 523.486 53.8244" stroke="black" stroke-width="3" stroke-linecap="round"/>
<path d="M548.612 46.1523C547.078 49.9325 546.247 53.333 546.353 57.4261C546.422 60.0649 546.893 62.5829 547.611 65.1195C547.964 66.3661 549.612 72.5672 552.257 70.8629C556.304 68.2544 557.552 61.7729 558.277 57.3834C558.667 55.0212 559.165 47.9347 558.394 50.2015C557.087 54.047 558.725 59.543 560.142 63.1375C561.01 65.3399 564.549 72.0318 567.899 70.2449C571.819 68.1542 571.437 61.3441 571.117 57.6818C570.791 53.9422 570.064 49.927 568.368 46.5359" stroke="black" stroke-width="3" stroke-linecap="round"/>
<path d="M584.137 41.8955C583.947 50.425 583.745 58.9634 583.745 67.4944" stroke="black" stroke-width="3" stroke-linecap="round"/>
<path d="M591.712 65.1435C596.609 66.2465 603.381 65.0597 604.453 59.3097C604.765 57.6384 604.469 55.9687 603.401 54.6151C602.091 52.953 599.735 53.7641 598.315 54.782C593.969 57.8977 589.394 65.5869 592.554 70.8539C593.769 72.8788 596.005 74.261 598.417 73.9377C600.762 73.6232 601.776 72.098 602.422 69.9759" stroke="black" stroke-width="3" stroke-linecap="round"/>
<path d="M627.182 44.1826C626.132 52.6524 625.171 61.1466 625.171 69.6893C625.171 70.0057 625.203 70.347 625.171 70.6634C625.083 71.5449 624.895 68.9088 624.65 68.0575C623.899 65.4481 622.566 62.991 620.313 61.3939C615.413 57.9201 610.938 64.4531 611.112 68.9758C611.255 72.6927 614.538 74.9486 618.079 74.0697C620.228 73.5365 622.12 72.106 623.049 70.0926" stroke="black" stroke-width="3" stroke-linecap="round"/>
<path d="M638.796 53.2288C637.039 54.117 635.448 55.015 634.248 56.6226C633.092 58.172 632.354 59.935 632.002 61.8282C631.768 63.0875 631.725 64.3249 632.207 65.5385C632.69 66.7558 634.109 68.0196 635.433 68.2064C637.774 68.5367 639.482 65.219 640.037 63.4848C640.829 61.0123 640.431 58.4542 640.589 55.9215C640.675 54.5484 641.815 57.0198 641.911 57.2369C643.738 61.3692 644.404 66.096 644.07 70.589C643.832 73.7992 642.828 78.2641 639.528 79.6972C636.111 81.1813 632.738 80.4027 629.862 78.2453" stroke="black" stroke-width="3" stroke-linecap="round"/>
<path d="M651.752 63.1001C653.775 63.346 655.865 63.6524 657.906 63.4051C660.167 63.1312 662.375 62.0773 664.258 60.8324C666.229 59.5288 666.449 56.7646 665.067 54.9045C663.554 52.8681 661.739 52.7638 659.457 53.6182C656.147 54.8578 653.479 57.6825 651.819 60.7263C650.388 63.3483 649.551 66.4554 650.313 69.4192C650.943 71.8648 652.477 74.5125 654.796 75.6719C656.494 76.5208 658.32 76.9013 660.074 76.0698C661.633 75.3303 662.655 74.3082 663.568 72.887" stroke="black" stroke-width="3" stroke-linecap="round"/>
<path d="M427.025 51.9445C429.552 50.6152 432.414 50.6923 434.742 52.4119C436.58 53.7686 437.855 55.7549 438.168 58.0295C438.444 60.0294 437.944 62.2012 436.599 63.7419C435.303 65.2263 433.537 66.0383 431.572 66.2302C429.969 66.3868 428.196 66.1046 426.905 65.0745C425.371 63.8511 424.493 62.0537 424.157 60.1547C423.872 58.5364 424.097 57.0812 424.726 55.5696C425.156 54.5372 425.785 53.3844 426.627 52.6266" stroke="black" stroke-width="3" stroke-linecap="round"/>
<path d="M435.437 65.4155C436.373 66.9792 437.389 68.4939 438.273 70.089C438.615 70.7073 439.717 72.468 439.185 72.0026C438.189 71.131 437.398 70.0286 436.672 68.9333C436.208 68.2336 435.7 67.5324 435.323 66.7797" stroke="black" stroke-width="3" stroke-linecap="round"/>
<path d="M940.279 223.188C945.136 217.784 950.799 214.18 958.194 214.527C965.411 214.866 972.768 219.51 977.203 225.109C988.281 239.095 987.143 258.938 979.915 274.383C975.234 284.386 967.72 292.176 959.393 299.201C957.952 300.416 956.359 301.361 954.876 302.507C954.273 302.972 953.597 303.313 952.851 303.438" stroke="black" stroke-width="3" stroke-linecap="round"/>
<path d="M941.536 223.607C938.313 218.127 934.461 214.087 927.917 212.921C920.877 211.666 912.804 216.437 909.141 222.315C904.982 228.988 903.373 236.702 904.135 244.49C904.76 250.876 907 256.902 909.851 262.603C912.2 267.301 915.03 271.864 918.744 275.617C922.853 279.768 927.609 282.966 932.41 286.245C936.547 289.07 941.272 290.923 945.378 293.788C947.127 295.008 948.901 296.227 950.336 297.827C951.694 299.339 952.579 301.217 953.479 303.019" stroke="black" stroke-width="3" stroke-linecap="round"/>
<path d="M193.327 598.469C198.184 593.065 203.847 589.461 211.241 589.808C218.459 590.147 225.816 594.791 230.251 600.39C241.329 614.376 240.19 634.219 232.963 649.664C228.282 659.667 220.768 667.457 212.44 674.482C211 675.697 209.407 676.642 207.924 677.788C207.321 678.253 206.645 678.594 205.898 678.719" stroke="black" stroke-width="3" stroke-linecap="round"/>
<path d="M194.584 598.888C191.36 593.408 187.509 589.368 180.965 588.202C173.925 586.947 165.851 591.718 162.188 597.596C158.029 604.269 156.421 611.983 157.183 619.771C157.808 626.157 160.048 632.183 162.898 637.884C165.247 642.582 168.077 647.145 171.792 650.898C175.9 655.049 180.656 658.247 185.458 661.526C189.595 664.351 194.32 666.204 198.425 669.069C200.175 670.289 201.949 671.508 203.384 673.108C204.742 674.62 205.627 676.498 206.527 678.3" stroke="black" stroke-width="3" stroke-linecap="round"/>
<path d="M164.327 161.469C169.184 156.065 174.847 152.461 182.241 152.808C189.459 153.147 196.816 157.791 201.251 163.39C212.329 177.376 211.19 197.219 203.963 212.664C199.282 222.667 191.768 230.457 183.44 237.482C182 238.697 180.407 239.642 178.924 240.788C178.321 241.253 177.645 241.594 176.898 241.719" stroke="black" stroke-width="3" stroke-linecap="round"/>
<path d="M165.584 161.888C162.36 156.408 158.509 152.368 151.965 151.202C144.925 149.947 136.851 154.718 133.188 160.596C129.029 167.269 127.421 174.983 128.183 182.771C128.808 189.157 131.048 195.183 133.898 200.884C136.247 205.582 139.077 210.145 142.792 213.898C146.9 218.049 151.656 221.247 156.458 224.526C160.595 227.351 165.32 229.204 169.425 232.069C171.175 233.289 172.949 234.508 174.384 236.108C175.742 237.62 176.627 239.498 177.527 241.3" stroke="black" stroke-width="3" stroke-linecap="round"/>
<path d="M891.563 528.166C898.82 527.81 905.367 529.294 910.327 534.789C915.168 540.153 917.051 548.647 916.198 555.738C914.066 573.452 899.175 586.616 883.118 592.359C872.719 596.078 861.897 596.228 851.045 595.26C849.169 595.093 847.376 594.627 845.518 594.381C844.763 594.281 844.044 594.041 843.43 593.598" stroke="black" stroke-width="3" stroke-linecap="round"/>
<path d="M892.151 529.354C893.772 523.207 893.928 517.627 890.149 512.159C886.083 506.277 877.011 503.903 870.258 505.441C862.591 507.186 855.981 511.476 850.987 517.5C846.892 522.44 844.191 528.274 842.15 534.312C840.468 539.288 839.22 544.511 839.171 549.791C839.116 555.631 840.194 561.26 841.246 566.978C842.153 571.905 844.164 576.565 845.021 581.497C845.386 583.599 845.769 585.717 845.644 587.863C845.526 589.891 844.815 591.842 844.171 593.75" stroke="black" stroke-width="3" stroke-linecap="round"/>
</svg>
