<svg width="1156" height="715" viewBox="0 0 1156 715" fill="none" xmlns="http://www.w3.org/2000/svg">
<g id="rank">
<g id="browser-window">
<path id="Vector 1" d="M2 48.6029C145.608 30.8598 289.441 14.1967 434.064 7.53387C582.071 0.715137 729.749 4.14315 877.542 13.5767C952.13 18.3377 1027.91 22.6213 1102.02 32.9362C1117.53 35.0944 1140.04 35.4943 1154.17 42.56" stroke="black" stroke-width="3" stroke-linecap="round"/>
<path id="Vector 2" d="M52.3569 6.30292C63.506 184.687 51.1731 364.004 74.5141 541.655C81.3395 593.604 96.4965 643.958 106.743 695.188" stroke="black" stroke-width="3" stroke-linecap="round"/>
<path id="Vector 3" d="M1130 2.27435C1123.14 53.5157 1113.21 104.076 1110.75 155.808C1107.05 233.514 1102.03 311.425 1101.8 389.241C1101.65 439.076 1098.87 489.942 1102.92 539.64C1104.58 560.01 1105.83 580.081 1105.83 600.517" stroke="black" stroke-width="3" stroke-linecap="round"/>
<path id="Vector 4" d="M98.6855 713.316C301.524 670.243 506.894 665.617 713.266 658.036C847.983 653.087 983.8 650.891 1117.91 636.774" stroke="black" stroke-width="3" stroke-linecap="round"/>
<path id="Vector 5" d="M52.3569 117.089C307.312 93.4041 565.881 98.2038 821.366 111.046C923.69 116.189 1025.45 127.16 1127.98 127.16" stroke="black" stroke-width="3" stroke-linecap="round"/>
<path id="Vector 181" d="M204.269 40.0081C251.895 39.8063 299.535 39.4449 347.171 39.2489C396.596 39.0455 445.949 35.5085 495.388 37.7304C550.798 40.2208 606.564 38.4897 662.037 38.4897C667.772 38.4897 677.439 37.0594 681.439 41.9483C686.781 48.4779 686.374 59.4588 686.374 67.34C686.374 72.0797 687.377 77.1438 682.536 79.8672C680.458 81.0356 678.459 81.1999 676.082 81.3856C668.011 82.0162 659.876 81.7652 651.787 81.7652C640.568 81.7652 629.348 81.7652 618.128 81.7652C594.818 81.7652 571.507 81.7652 548.196 81.7652C526.689 81.7652 505.448 80.4052 484 79.5297C465.497 78.7746 447.023 78.7283 428.492 78.7283C401.908 78.7283 375.874 77.7201 349.364 79.4032C325.541 80.9158 301.627 81.006 277.745 81.006C268.268 81.006 258.881 82.5244 249.4 82.5244C241.864 82.5244 234.328 82.5244 226.793 82.5244C216.129 82.5244 209.192 80.4669 205.408 69.9551C203.001 63.2706 202.009 54.3789 204.269 47.6003" stroke="black" stroke-width="3" stroke-linecap="round"/>
<path id="Vector 183" d="M157.757 67.3894C151.518 67.9566 145.229 69.4161 138.952 69.4789C136.723 69.5012 134.517 69.3048 132.296 69.3048C130.918 69.3048 132.98 69.3048 133.38 69.3048C134.777 69.3048 132.94 69.4019 132.548 69.2661C131.207 68.8019 136.166 64.1291 136.611 63.5973C136.653 63.5463 137.265 62.883 137.007 63.162C135.811 64.4583 134.575 65.8102 133.457 67.1765C132.973 67.7684 131.338 69.1447 131.29 70.0013C131.259 70.5675 131.864 71.0952 132.18 71.5007C133.004 72.5564 133.957 73.4633 134.947 74.3544" stroke="black" stroke-width="3" stroke-linecap="round"/>
<path id="Vector 184" d="M169.772 66.867C173.291 66.5598 176.817 66.385 180.336 66.0834C182.275 65.9172 184.231 65.665 186.179 65.6481C186.511 65.6452 189.533 65.9784 189.777 65.5514C190.192 64.825 186.672 62.7503 186.15 62.3397C185.505 61.8335 183.508 60.4133 184.224 60.8113C185.61 61.5812 186.838 62.9527 188.017 64.0036C188.566 64.4933 189.622 65.1109 189.622 65.9093C189.622 66.9621 187.82 68.4661 187.272 69.3048C186.708 70.1665 186.181 71.0716 185.617 71.9167" stroke="black" stroke-width="3" stroke-linecap="round"/>
<path id="Vector 185" d="M97.2281 59.5656C96.1777 58.8747 95.1875 58.2151 93.9468 57.9435C92.1456 57.5491 90.4976 57.6539 88.7236 58.1474C87.194 58.5728 85.7969 59.2641 84.5616 60.2654C83.5105 61.1175 82.5221 62.0478 81.6186 63.0555C79.9775 64.8859 78.9169 67.3463 77.9851 69.5857C75.2747 76.0995 76.3579 84.0554 81.6418 88.9678C85.5668 92.6168 91.241 93.3875 96.3754 92.8146C101.054 92.2925 105.206 90.0777 107.767 86.0526C109.785 82.8826 109.944 78.8822 108.574 75.4346C107.708 73.2562 106.261 71.5574 104.444 70.1233C104.037 69.8015 103.601 69.5584 103.16 69.2891C103.026 69.2071 102.798 69.1207 102.734 68.9925" stroke="black" stroke-width="3" stroke-linecap="round"/>
<path id="Vector 186" d="M101.65 67.908C101.57 68.9187 101.625 69.8991 101.701 70.9112C101.759 71.6923 102.141 73.9998 101.909 73.2517C101.609 72.2839 101.277 71.3055 101.047 70.318C100.93 69.815 100.885 69.3023 100.778 68.7978C100.738 68.6095 100.646 68.2039 100.778 68.0331C101.014 67.7305 101.886 67.9575 102.178 68.0099C103.334 68.2174 104.502 68.6217 105.598 69.0342C106.684 69.4429 107.768 70.1827 108.908 70.4107" stroke="black" stroke-width="3" stroke-linecap="round"/>
<path id="Vector 187" d="M1051.25 63.8994C1054.25 56.7466 1059.62 50.8102 1067.63 49.7169C1072.27 49.0836 1077.02 49.799 1081.24 51.8035C1085.38 53.7649 1088.53 56.9151 1091.24 60.5655C1093.23 63.2463 1094.55 66.1278 1095.84 69.1914C1097.49 73.1001 1098.92 77.3853 1099.29 81.6351C1099.76 87.0268 1099.03 92.8698 1096.72 97.7983C1095.04 101.375 1092.58 103.779 1089.37 106.024C1083.16 110.371 1074.67 111.22 1067.42 109.524C1060.29 107.857 1054.17 102.814 1050.2 96.8004C1046.2 90.7616 1044.35 83.5811 1045.25 76.3431C1045.94 70.7532 1048.74 65.2595 1053.16 61.7221" stroke="black" stroke-width="3" stroke-linecap="round"/>
<path id="Vector 188" d="M1054.79 72.0642C1056.83 70.7066 1059.9 69.0503 1062.14 70.8394" stroke="black" stroke-width="3" stroke-linecap="round"/>
<path id="Vector 189" d="M1075.75 69.6147C1077.13 68.676 1078.73 67.3924 1080.53 67.634C1081.6 67.7787 1082.63 68.1711 1083.64 68.5261" stroke="black" stroke-width="3" stroke-linecap="round"/>
<path id="Vector 190" d="M221.454 53.8474C222.179 52.5366 222.999 51.1603 224.279 50.3113C225.434 49.5454 227.135 49.3114 228.487 49.2495C231.121 49.1288 233.802 49.9409 235.89 51.541C240.034 54.7167 241.664 60.7443 240.424 65.7053C239.676 68.695 237.977 71.6341 235.179 73.0788C232.724 74.346 229.82 74.5733 227.272 73.3455C224.736 72.124 222.902 69.5645 221.681 67.1227C220.978 65.7176 220.57 64.2049 220.278 62.668C220.049 61.4569 219.822 60.2601 219.873 59.0232C219.947 57.2429 220.377 55.7239 221.276 54.203" stroke="black" stroke-width="3" stroke-linecap="round"/>
<path id="Vector 191" d="M240.3 67.182C241.424 68.8356 242.727 70.3702 243.796 72.0615C244.063 72.4829 244.298 72.9245 244.557 73.3505C244.599 73.4192 244.735 73.612 244.735 73.7011C244.735 73.9068 244.462 73.3924 244.34 73.227C243.92 72.6601 243.535 72.0482 243.164 71.4491C242.481 70.3453 241.77 69.233 241.189 68.071" stroke="black" stroke-width="3" stroke-linecap="round"/>
</g>
<g id="animate">
<path id="Vector 192" d="M325 534.321C370.625 504.493 421.383 489.912 473.155 480.121C527.558 469.834 583.262 465.577 638.391 467.416C721.324 470.183 807.082 483.063 884.306 517.966C903.478 526.631 927.195 536.517 941 555" stroke="black" stroke-width="3" stroke-linecap="round"/>
<path id="Vector 193" d="M464.322 481C464.322 438.259 461 395.652 461 352.927C461 348.614 475.68 350.342 478.085 350.342C488.666 350.342 499.247 350.342 509.829 350.342C512.698 350.342 514.161 350.019 514.996 353.162C516.334 358.196 516.414 363.028 516.552 368.202C516.73 374.925 517 381.619 517 388.359C517 417.046 517 445.733 517 474.42" stroke="black" stroke-width="3" stroke-linecap="round"/>
<path id="Vector 194" d="M515.414 357.503C514.745 351.557 514.749 345.68 514.724 339.711C514.695 332.572 514.258 325.411 513.862 318.284C513.473 311.284 513 304.247 513 297.237C513 293.287 518.526 293.807 521.505 293.375C535.775 291.306 550.311 289.884 564.722 289.098C572.605 288.667 580.454 288 588.341 288C590.609 288 589.893 291.693 589.893 293.432C589.893 302.368 589.721 311.191 589.011 320.101C587.237 342.392 586.012 364.819 585.755 387.182C585.545 405.475 584.031 423.72 584.031 442.015C584.031 452.334 583.686 462.666 583.686 473" stroke="black" stroke-width="3" stroke-linecap="round"/>
<path id="Vector 195" d="M587 397C602.859 397.398 618.733 397.765 634.596 397.765C635.451 397.765 636.552 398.593 636.894 399.359C639.01 404.1 638.944 410.239 638.98 415.318C639.104 432.555 638.601 449.765 638.601 467" stroke="black" stroke-width="3" stroke-linecap="round"/>
<path id="Vector 196" d="M540.044 233.973C540.549 232.8 540.995 231.521 541.841 230.553C542.725 229.542 544.098 229.054 545.305 228.634C546.824 228.105 548.416 227.88 550.018 228.062C553.443 228.453 556.355 231.021 558.502 233.633C566.701 243.606 565.654 261.2 555.868 269.551C554.112 271.05 552.16 272.555 549.846 272.863C548.044 273.103 546.287 273.03 544.518 272.622C540.979 271.806 537.687 269.919 535.4 266.917C531.978 262.426 530.686 257.256 531.063 251.561C531.291 248.129 532.051 244.797 533.475 241.687C535.223 237.871 538.02 234.868 540.814 231.884" stroke="black" stroke-width="3" stroke-linecap="round"/>
<path id="Vector 197" d="M541 245C541 245.999 541 246.975 541 248" stroke="black" stroke-width="3" stroke-linecap="round"/>
<path id="Vector 198" d="M551 243V246" stroke="black" stroke-width="3" stroke-linecap="round"/>
<path id="Vector 199" d="M541 257.305C542.862 258.701 545.053 260.339 547.655 259.939C549.516 259.652 551.311 258.914 552.879 257.973C553.56 257.565 554.726 256.75 555 256" stroke="black" stroke-width="3" stroke-linecap="round"/>
<path id="Vector 200" d="M494 155C492.759 172.349 491.014 189.654 489.803 207.006C489.643 209.296 489.434 211.6 489.434 213.899C489.434 214.4 489.434 212.899 489.434 212.399C489.434 196.621 490.017 181.036 491.187 165.317C491.339 163.268 491.509 161.275 491.509 159.22C491.509 156.383 487.601 164.163 487.382 164.52C483.694 170.497 479.417 176.087 475.805 182.105C474.674 183.989 472.681 185.841 472 187.92" stroke="black" stroke-width="3" stroke-linecap="round"/>
<path id="Vector 201" d="M528 176C524.9 176.756 521.801 177.669 519.087 179.451C517.58 180.442 515.591 181.997 515.394 183.998C515.179 186.188 516.988 188.657 518.26 190.238C520.176 192.617 522.455 194.845 523.586 197.774C524.821 200.974 524.769 205.327 520.706 205.93C517.74 206.371 515.575 204.668 514 202.328" stroke="black" stroke-width="3" stroke-linecap="round"/>
<path id="Vector 202" d="M542 170C541.85 179.028 541.195 188.09 540.429 197.093C540.204 199.734 540 202.352 540 205" stroke="black" stroke-width="3" stroke-linecap="round"/>
<path id="Vector 203" d="M531 187C536.669 187 542.331 187 548 187" stroke="black" stroke-width="3" stroke-linecap="round"/>
</g>
</g>
</svg>
