<svg width="1156" height="934" viewBox="0 0 1156 934" fill="none" xmlns="http://www.w3.org/2000/svg">
<g id="search Page">
<g id="google">
<path id="Vector 134" d="M435.134 443.812C449.277 444.079 463.965 444.68 477.928 447.174C484.583 448.362 482.807 458.388 482.841 463.399C482.946 478.99 482.259 494.544 482.259 510.136" stroke="black" stroke-width="3" stroke-linecap="round"/>
<path id="Vector 135" d="M478.768 488.028C463.957 490.721 446.308 492.604 431.999 486.541C419.627 481.299 416 466.867 416 454.446C416 446.091 417.221 436.625 421.074 429.106C426.382 418.75 436.398 411.918 447.223 408.194C465.458 401.919 490.249 403.939 499.713 422.868" stroke="black" stroke-width="3" stroke-linecap="round"/>
<path id="Vector 136" d="M503.785 464.757C509.956 457.157 515.702 451.464 525.376 449.178C531.624 447.701 540.556 448.023 545.674 452.345C557.19 462.069 556.625 478.616 548.389 490.097C541.168 500.163 524.178 502.89 513.546 497.207C500.626 490.302 497.701 477.929 504.367 465.338" stroke="black" stroke-width="3" stroke-linecap="round"/>
<path id="Vector 137" d="M568.364 453.702C574.539 447.84 579.64 445.007 588.177 446.172C597.028 447.378 605.269 452 611.416 458.486C621.154 468.761 624.295 483.358 615.456 495.236C606.818 506.843 588.702 507.764 577.058 500.439C570.352 496.221 565.691 488.479 563.774 480.853C561.674 472.496 564.211 465.967 568.364 458.939" stroke="black" stroke-width="3" stroke-linecap="round"/>
<path id="Vector 138" d="M675.318 435.983C667.722 437.502 658.91 439.203 653.394 445.226C649.738 449.218 646.395 455.051 647.077 460.647C648.315 470.798 663.607 478.378 671.555 471.005C678.2 464.842 674.715 453.562 674.482 445.737C674.478 445.619 674.389 442.021 674.574 442.021C675.404 442.021 677.007 449.474 677.199 450.243C680.01 461.489 681.052 473.34 682.215 484.847C683.48 497.357 683.485 510.503 679.266 522.493C675.255 533.891 665.487 541.671 653.557 543.163C647.842 543.877 641.295 543.476 636.069 540.863C631.171 538.414 629.058 535.364 628.498 530.041" stroke="black" stroke-width="3" stroke-linecap="round"/>
<path id="Vector 139" d="M698.31 425.532C698.31 438.59 698.551 451.608 697.264 464.619C696.289 474.48 695.246 484.626 694.989 494.531C694.79 502.178 694.965 509.85 694.965 517.5" stroke="black" stroke-width="3" stroke-linecap="round"/>
<path id="Vector 140" d="M709.178 494.09C715.471 492.889 730.543 488.642 726.411 478.902C723.335 471.652 712.9 470.616 709.805 478.553C707.352 484.845 708.478 490.898 710.641 497.086C712.451 502.263 714.825 507.159 719.629 510.138C726.755 514.556 736.269 508.885 739.695 502.033" stroke="black" stroke-width="3" stroke-linecap="round"/>
</g>
<g id="search-bar">
<path id="Vector 141" d="M386.642 572.134C440.662 570.272 494.709 571.296 548.732 569.852C595.995 568.59 643.143 567 690.427 567C723.729 567 757.031 567 790.333 567" stroke="black" stroke-width="3" stroke-linecap="round"/>
<path id="Vector 142" d="M387.925 577.269C387.925 591.211 388.567 605.036 388.567 618.986C388.567 624.269 389.851 629.08 389.851 634.389" stroke="black" stroke-width="3" stroke-linecap="round"/>
<path id="Vector 143" d="M386 636.956C425.84 636.956 465.598 636.314 505.446 636.314C529.225 636.314 552.9 635.726 576.65 635.066C588.542 634.736 600.48 635.031 612.377 635.031C623.973 635.031 635.489 636.58 647.069 636.92C668.085 637.539 689.073 637.598 710.108 637.598C724.288 637.598 738.31 635.672 752.467 635.672C766.623 635.672 780.654 633.747 794.826 633.747" stroke="black" stroke-width="3" stroke-linecap="round"/>
<path id="Vector 144" d="M785.199 568.283C788.852 590.429 787.766 613.259 787.766 635.672" stroke="black" stroke-width="3" stroke-linecap="round"/>
<g id="Group 1">
<path id="Vector 145" d="M420.736 591.364C421.008 596.559 421.304 601.753 421.424 606.954C421.475 609.186 421.521 611.416 421.676 613.644C421.781 615.156 421.856 616.639 422.173 618.122" stroke="black" stroke-width="3" stroke-linecap="round"/>
<path id="Vector 146" d="M431.683 590.037C432.356 596.096 431.989 602.164 432.186 608.244C432.249 610.165 432.355 612.066 432.622 613.969C432.729 614.727 432.725 615.641 433.009 616.353" stroke="black" stroke-width="3" stroke-linecap="round"/>
<path id="Vector 147" d="M420.736 604.632C424.335 604.498 427.979 604.162 431.572 604.522" stroke="black" stroke-width="3" stroke-linecap="round"/>
<path id="Vector 148" d="M439.792 602.209C440.522 600.736 441.192 599.349 442.532 598.33C443.407 597.665 444.462 597.046 445.554 596.831C447.24 596.498 449.27 596.741 450.763 597.62C455.115 600.184 455.597 606.606 452.172 610.118C449.609 612.746 444.82 613.743 441.641 611.623C440.226 610.68 439.236 609.055 438.721 607.463C438.106 605.563 438.369 603.557 439.183 601.803" stroke="black" stroke-width="3" stroke-linecap="round"/>
<path id="Vector 149" d="M463.131 597.034C461.978 600.425 461.221 604.03 462.483 607.508C462.805 608.395 463.313 609.425 464.337 609.616C465.473 609.829 466.331 609.275 467.162 608.54C469.133 606.794 469.559 604.172 469.93 601.685C470.052 600.864 470.133 600.061 470.133 599.232C470.133 598.576 470.139 598.978 470.189 599.396C470.558 602.449 471.288 605.816 472.974 608.433C474.173 610.293 476.907 612.322 478.916 610.259C481.4 607.708 481.086 603.988 480.258 600.777C479.651 598.427 478.522 595.796 476.627 594.192" stroke="black" stroke-width="3" stroke-linecap="round"/>
<path id="Vector 150" d="M503.026 590.948C503.755 595.368 504.396 599.753 504.792 604.215C504.903 605.462 504.854 606.747 505.185 607.962" stroke="black" stroke-width="3" stroke-linecap="round"/>
<path id="Vector 151" d="M499.313 599.93C501.949 599.249 504.574 598.742 507.306 598.98C507.956 599.037 508.597 599.167 509.245 599.239" stroke="black" stroke-width="3" stroke-linecap="round"/>
<path id="Vector 152" d="M514.254 597.339C516.002 596.993 517.821 597.14 518.917 598.759C519.592 599.756 519.385 601.263 519.09 602.348C518.711 603.742 517.557 605.712 515.981 605.937C514.23 606.187 512.942 604.092 512.363 602.737C511.658 601.085 511.947 599.554 513.045 598.203" stroke="black" stroke-width="3" stroke-linecap="round"/>
<path id="Vector 153" d="M544.143 591.287C541.679 593.266 539.231 595.692 538.192 598.754C537.511 600.76 537.214 603.373 538.366 605.286C539.88 607.797 543.369 608 545.569 606.4" stroke="black" stroke-width="3" stroke-linecap="round"/>
<path id="Vector 154" d="M548.896 596.705C550.611 595.644 552.292 594.767 554.319 595.479C555.546 595.911 556.498 597.016 556.949 598.209C557.86 600.621 556.831 603.799 554.61 605.122C552.736 606.238 549.687 606.721 548.262 604.583C546.737 602.295 547.131 599.755 548.326 597.465" stroke="black" stroke-width="3" stroke-linecap="round"/>
<path id="Vector 155" d="M567.621 590.051C567.881 596.165 568.259 602.299 568.381 608.417C568.399 609.314 568.274 607.841 568.181 607.593C567.604 606.065 566.466 604.05 564.843 603.421C561.795 602.242 560.886 607.53 561.96 609.399C562.652 610.603 564.119 610.725 565.318 610.35C566.576 609.956 567.283 609.028 567.906 607.92" stroke="black" stroke-width="3" stroke-linecap="round"/>
<path id="Vector 156" d="M573.609 601.837C575.979 601.632 579.377 601.646 581.055 599.556C581.774 598.66 581.721 597.481 580.785 596.821C579.644 596.015 577.833 596.497 576.709 597.106C575.84 597.576 575.169 598.488 574.602 599.266C573.817 600.342 573.327 601.499 573.007 602.788C572.553 604.617 572.634 606.562 573.503 608.259C574.352 609.914 576.141 611.363 578.103 611.147C580.601 610.872 581.941 608.777 583.209 606.875" stroke="black" stroke-width="3" stroke-linecap="round"/>
<path id="Vector 157" d="M590.168 592.823C591.786 591.303 594.259 588.99 596.748 589.514C598.376 589.857 599.603 591.077 600.23 592.575C601.509 595.63 599.083 599.328 597.392 601.701C596.229 603.334 594.722 604.873 594.245 606.869C593.994 607.917 593.96 608.927 593.96 609.998" stroke="black" stroke-width="3" stroke-linecap="round"/>
<path id="Vector 158" d="M595.298 614.57C594.972 614.891 594.646 615.181 594.294 615.463" stroke="black" stroke-width="3" stroke-linecap="round"/>
</g>
</g>
<g id="profile">
<g id="taps">
<g id="browser-window">
<path id="Vector 1" d="M2 267.603C145.608 249.86 289.441 233.197 434.064 226.534C582.071 219.715 729.749 223.143 877.542 232.577C952.13 237.338 1027.91 241.621 1102.02 251.936C1117.53 254.094 1140.04 254.494 1154.17 261.56" stroke="black" stroke-width="3" stroke-linecap="round"/>
<path id="Vector 2" d="M52.3569 225.303C63.506 403.687 51.1731 583.004 74.5141 760.655C81.3395 812.604 96.4965 862.958 106.743 914.188" stroke="black" stroke-width="3" stroke-linecap="round"/>
<path id="Vector 3" d="M1130 221.274C1123.14 272.516 1113.21 323.076 1110.75 374.808C1107.05 452.514 1102.03 530.425 1101.8 608.241C1101.65 658.076 1098.87 708.943 1102.92 758.641C1104.58 779.01 1105.83 799.081 1105.83 819.517" stroke="black" stroke-width="3" stroke-linecap="round"/>
<path id="Vector 4" d="M98.6855 932.316C301.524 889.243 506.894 884.617 713.266 877.036C847.983 872.087 983.8 869.891 1117.91 855.774" stroke="black" stroke-width="3" stroke-linecap="round"/>
<path id="Vector 5" d="M52.3569 336.088C307.312 312.404 565.881 317.204 821.366 330.046C923.69 335.189 1025.45 346.16 1127.98 346.16" stroke="black" stroke-width="3" stroke-linecap="round"/>
<path id="Vector 19" d="M796.388 229.833C835.09 185.026 878.211 146.32 926.513 112.059C949.617 95.6713 973.75 80.8724 997.914 66.1201C1011.11 58.0648 1024.13 49.2597 1037.89 42.1753C1044.28 38.8905 1051.01 36.3435 1057.34 32.9658C1060.01 31.5431 1062.47 29.8141 1065.41 29.0111C1067.39 28.4714 1068.41 27.0067 1070.4 27.0067" stroke="black" stroke-width="3" stroke-linecap="round"/>
<path id="Vector 20" d="M1079.62 16.2915C1080.81 20.0579 1082.24 23.8698 1082.78 27.804C1082.85 28.3222 1083.23 29.7863 1082.8 30.2852C1082.52 30.6004 1081.48 28.0198 1081.41 27.804C1080.6 25.5029 1080.29 23.0641 1079.88 20.6725C1079.77 20.035 1078.28 15.2399 1079.79 15.2707C1081.89 15.3135 1083.79 16.7536 1085.38 17.9361C1090.23 21.5485 1094.77 25.5341 1099.27 29.5621" stroke="black" stroke-width="3" stroke-linecap="round"/>
<path id="Vector 21" d="M1093.91 11.953C1095.2 17.8431 1096.48 23.727 1098 29.5621" stroke="black" stroke-width="3" stroke-linecap="round"/>
<path id="Vector 22" d="M1103.36 13.4842C1104 16.3411 1104.71 19.1741 1105.4 22.0193C1105.58 22.7694 1105.81 23.7764 1105.64 24.5572C1105.54 24.9977 1105.11 24.112 1105.1 24.0893C1104.31 22.6075 1103.83 20.9374 1103.67 19.2688C1103.49 17.4608 1103.15 13.2573 1105.71 13.2573C1108.13 13.2573 1109.97 14.6523 1111.86 16.0362C1115.18 18.465 1117.6 21.1456 1119.94 24.458" stroke="black" stroke-width="3" stroke-linecap="round"/>
<path id="Vector 23" d="M1104.38 22.6715C1106.41 22.0311 1108.43 21.6016 1110.5 21.1403" stroke="black" stroke-width="3" stroke-linecap="round"/>
<path id="Vector 24" d="M1113.05 8.12488C1118.09 12.7312 1123.16 17.5553 1128.62 21.6507" stroke="black" stroke-width="3" stroke-linecap="round"/>
<path id="Vector 25" d="M1128.37 2C1127.84 7.4453 1127.04 12.8653 1126.83 18.3331" stroke="black" stroke-width="3" stroke-linecap="round"/>
</g>
<path id="Vector 159" d="M76.0938 287.038C85.887 285.997 95.7257 285.676 105.567 285.612C115.884 285.544 126.162 284.71 136.466 284.486C146.535 284.268 156.555 283.044 166.636 283.044C176.627 283.044 186.62 282.759 196.617 282.759C197.341 282.759 198.893 282.45 199.596 282.823C200.233 283.16 199.881 285.113 199.881 285.675C199.881 289.314 199.881 292.953 199.881 296.593C199.881 299.73 199.881 302.868 199.881 306.005C199.881 308.401 198.616 308.651 196.442 309.158C189.717 310.728 182.327 310.317 175.447 310.426C157.052 310.718 138.595 310.582 120.24 311.979C109.159 312.822 98.0397 312.993 86.9323 312.993C81.9723 312.993 80.4822 308.19 78.8192 304.199C77.2161 300.351 76.9494 295.735 76.9494 291.601" stroke="black" stroke-width="3" stroke-linecap="round"/>
<path id="Vector 160" d="M234.384 280.519C240.352 280.519 246.376 280.726 252.343 280.459C257.13 280.245 262.005 280.184 266.771 279.711C277.359 278.658 288.081 278.077 298.709 277.615C311.338 277.066 324.188 277.997 336.753 276.343C339.936 275.924 343.092 275.67 346.302 275.67C349.981 275.67 350.415 279.381 351.51 282.075C352.735 285.092 352.378 288.588 352.378 291.774C352.378 293.814 352.378 295.854 352.378 297.895C352.378 300.376 348.168 299.915 346.436 299.915C340.104 299.915 333.782 299.646 327.459 299.646C320.215 299.646 312.972 299.646 305.728 299.646C293.353 299.646 280.989 300.454 268.627 300.454C258.367 300.454 248.157 300.993 237.901 300.993C237.061 300.993 236.367 301.191 235.85 300.439C234.619 298.648 234.265 296.848 233.71 294.752C232.779 291.233 233.037 287.631 233.037 284.021" stroke="black" stroke-width="3" stroke-linecap="round"/>
<path id="Vector 161" d="M397.049 274.038C401.275 273.178 405.621 273.641 409.898 273.821C414.262 274.005 418.624 274.189 422.988 274.362C430.539 274.662 438.081 274.686 445.636 274.686C458.566 274.686 471.393 275.659 484.293 276.295C489.366 276.545 494.477 276.446 499.556 276.415C503.579 276.391 507.548 275.77 511.553 275.551C517.172 275.243 522.738 275.118 528.377 275.118C530.407 275.118 532.54 275.33 534.526 275.551C534.861 275.588 535.709 276.278 535.919 276.547C536.92 277.835 536.687 279.987 536.687 281.459C536.687 288.117 536.039 294.736 536.039 301.382C536.039 303.114 536.197 303.592 534.273 303.988C531.067 304.648 527.757 304.716 524.486 304.732C517.867 304.764 511.302 304.565 504.696 304.252C478.725 303.021 452.807 301.922 426.795 301.922C423.164 301.922 419.533 301.922 415.903 301.922C413.158 301.922 410.296 302.164 407.569 301.814C405.932 301.604 404.333 301.199 402.717 300.889C401.71 300.696 400.618 300.879 399.595 300.841C396.727 300.735 396.291 295.506 396.076 293.696C395.471 288.582 395.536 283.502 395.536 278.361" stroke="black" stroke-width="3" stroke-linecap="round"/>
<path id="Vector 162" d="M92.6584 300.718C94.3673 299.062 96.1724 297.346 98.3273 296.28C99.9733 295.465 101.191 296.269 102.049 297.798C102.532 298.657 102.785 299.636 103.225 300.516C103.592 301.25 104.325 300.917 104.915 300.64C108.807 298.815 112.962 295.656 117.506 296.895C118.839 297.258 119.875 298.052 120.987 298.826C122.904 300.161 124.824 300.204 127.107 299.753C130.158 299.149 132.923 297.497 135.766 296.311C137.188 295.718 138.472 295.356 139.995 295.758C140.849 295.984 141.495 296.459 142.222 296.934C143.477 297.754 145.016 297.888 146.481 297.681C148.4 297.411 150.16 296.48 151.916 295.719C153.291 295.124 154.734 294.569 156.223 295.065C158.624 295.866 160.565 297.07 163.161 297.214" stroke="black" stroke-width="3" stroke-linecap="round"/>
<path id="Vector 163" d="M246.83 291.478C248.435 290.158 250.94 287.229 253.327 287.409C254.415 287.491 254.893 288.443 255.544 289.17C257.599 291.467 259.814 291.591 262.597 290.393C264.529 289.561 266.631 287.548 268.838 288.522C270.042 289.054 271.285 289.569 272.606 289.717C275.053 289.993 277.845 289.275 280.17 288.613C282.409 287.976 284.589 287.146 286.831 286.515C288.753 285.973 290.691 285.267 292.533 286.414C293.779 287.19 294.541 288.057 296.083 288.248C298.65 288.567 301.288 287.529 303.638 286.624C305.285 285.989 306.836 285.063 308.592 284.763C310.256 284.479 311.414 284.807 312.889 285.566C317.418 287.896 322.106 288.405 327.142 287.865" stroke="black" stroke-width="3" stroke-linecap="round"/>
<path id="Vector 164" d="M423.12 280.542C422.296 281.141 421.452 281.724 420.711 282.425C419.617 283.461 418.709 284.697 417.998 286.023C416.917 288.038 416.432 290.797 417.652 292.862C419.046 295.224 422.412 295.952 424.765 294.645" stroke="black" stroke-width="3" stroke-linecap="round"/>
<path id="Vector 165" d="M429.76 294.527C429.783 294.762 429.802 294.997 429.819 295.232" stroke="black" stroke-width="3" stroke-linecap="round"/>
<path id="Vector 166" d="M439.804 282.215C439.804 286.147 439.686 290.075 439.686 294.006" stroke="black" stroke-width="3" stroke-linecap="round"/>
<path id="Vector 167" d="M436.368 296.85C438.168 296.583 439.945 296.33 441.763 296.231C442.177 296.209 442.86 296.33 443.241 296.139" stroke="black" stroke-width="3" stroke-linecap="round"/>
<path id="Vector 168" d="M434.531 282.215C437.476 282.098 440.413 282.037 443.36 282.037" stroke="black" stroke-width="3" stroke-linecap="round"/>
<path id="Vector 169" d="M447.152 295.962L446.915 296.673" stroke="black" stroke-width="3" stroke-linecap="round"/>
<path id="Vector 170" d="M460.373 281.373C458.818 281.073 457.283 280.678 455.829 281.501C454.814 282.076 454.125 283.028 454.416 284.226C454.794 285.782 455.874 287.173 456.767 288.463C457.923 290.133 459.297 291.791 460.01 293.717C460.359 294.661 460.304 295.557 459.817 296.446C459.301 297.388 458.406 297.718 457.36 297.648C455.83 297.546 455.338 296.413 455.27 295.047" stroke="black" stroke-width="3" stroke-linecap="round"/>
<path id="Vector 171" d="M463.23 296.544L463.162 297.225" stroke="black" stroke-width="3" stroke-linecap="round"/>
<path id="Vector 172" d="M489.315 283.274C486.61 282.876 484.106 284.286 482.578 286.481C480.895 288.901 480.673 291.914 481.35 294.721C481.6 295.755 482.223 297.256 483.32 297.647C484.645 298.121 485.976 297.803 487.156 297.139" stroke="black" stroke-width="3" stroke-linecap="round"/>
<path id="Vector 173" d="M490.793 289.241C491.902 288.344 493.032 287.546 494.521 287.997C495.773 288.375 496.692 289.468 497.097 290.667C497.464 291.753 497.588 292.734 497.233 293.84C496.933 294.774 496.377 295.778 495.582 296.381C493.928 297.634 491.002 297.142 489.89 295.384C489.375 294.571 489.177 293.338 489.296 292.391C489.421 291.404 489.757 290.505 490.224 289.638" stroke="black" stroke-width="3" stroke-linecap="round"/>
<path id="Vector 174" d="M501.972 295.375C501.881 295.804 501.758 296.194 501.621 296.607" stroke="black" stroke-width="3" stroke-linecap="round"/>
<path id="Vector 175" d="M509.009 295.244C508.9 295.873 508.781 296.487 508.569 297.091" stroke="black" stroke-width="3" stroke-linecap="round"/>
<path id="Vector 176" d="M516.486 295.2C516.329 295.742 516.154 296.259 515.958 296.783" stroke="black" stroke-width="3" stroke-linecap="round"/>
</g>
<path id="Vector 177" d="M1023.69 267.94C1026.87 266.137 1030.06 264.052 1033.65 263.148C1036.83 262.345 1040.3 263.009 1043.41 263.818C1052.72 266.235 1060.94 273.103 1066.28 280.95C1072.19 289.651 1073.85 301.02 1070.43 310.987C1065.23 326.112 1046.55 329.963 1032.58 326.818C1026.37 325.42 1020.89 322.62 1016.3 318.2C1011.38 313.459 1008.89 307.662 1008.23 300.895C1007.4 292.412 1009.97 284.136 1013.76 276.655C1015.12 273.96 1016.79 271.199 1018.94 269.05C1021.01 266.981 1023.36 266.008 1026.1 265.185" stroke="black" stroke-width="3" stroke-linecap="round"/>
<path id="Vector 178" d="M1020.24 286.192C1022.27 286.399 1024.24 286.536 1026.27 286.536" stroke="black" stroke-width="3" stroke-linecap="round"/>
<path id="Vector 179" d="M1037.63 287.225C1039.79 287.056 1041.28 287.035 1042.35 285.015C1042.82 284.123 1043.4 283.226 1043.82 282.318C1044.82 280.166 1048.4 283.439 1049.69 283.954" stroke="black" stroke-width="3" stroke-linecap="round"/>
<path id="Vector 180" d="M1026.44 305.821C1029.18 305.981 1031.89 306.274 1034.61 306.587C1035.5 306.688 1036.41 306.98 1037.29 307.027C1039.41 307.138 1033.05 306.682 1030.92 306.682" stroke="black" stroke-width="3" stroke-linecap="round"/>
</g>
</g>
</svg>
