<svg width="1156" height="715" viewBox="0 0 1156 715" fill="none" xmlns="http://www.w3.org/2000/svg">
<path d="M2 48.3286C145.608 30.5855 289.441 13.9224 434.064 7.25958C582.071 0.440845 729.749 3.86885 877.542 13.3024C952.13 18.0634 1027.91 22.347 1102.02 32.6619C1117.53 34.8201 1140.04 35.22 1154.17 42.2857" stroke="black" stroke-width="3" stroke-linecap="round"/>
<path d="M52.3569 6.02856C63.506 184.413 51.1731 363.729 74.5141 541.38C81.3395 593.33 96.4965 643.683 106.743 694.914" stroke="black" stroke-width="3" stroke-linecap="round"/>
<path d="M1130 2C1123.14 53.2413 1113.21 103.801 1110.75 155.533C1107.05 233.24 1102.03 311.15 1101.8 388.966C1101.65 438.801 1098.87 489.668 1102.92 539.366C1104.58 559.735 1105.83 579.807 1105.83 600.242" stroke="black" stroke-width="3" stroke-linecap="round"/>
<path d="M98.6855 713.042C301.524 669.968 506.894 665.342 713.266 657.761C847.983 652.813 983.8 650.617 1117.91 636.5" stroke="black" stroke-width="3" stroke-linecap="round"/>
<path d="M52.3569 116.814C307.312 93.1297 565.881 97.9294 821.366 110.771C923.69 115.914 1025.45 126.885 1127.98 126.885" stroke="black" stroke-width="3" stroke-linecap="round"/>
<path d="M537.923 204C539.494 215.056 540.883 226.122 542.087 237.224C543.193 247.412 543.326 257.654 544.099 267.87C544.846 277.756 546.444 289.983 541.993 299.319C536.587 310.658 523.267 316.77 511.517 318.511C505.749 319.366 499.911 319.154 494.315 317.446C486.465 315.049 483.123 309.96 480 302.822" stroke="black" stroke-width="3" stroke-linecap="round"/>
<path d="M492 209C502.093 205.929 512.192 202.776 522.559 200.838C532.072 199.06 541.714 197.846 551.32 196.745C560.208 195.727 569.186 195.612 578 194" stroke="black" stroke-width="3" stroke-linecap="round"/>
<path d="M569.482 250.207C579.708 241.16 591.253 229.231 606.308 232.576C613.146 234.095 617.63 240.427 620.334 246.47C624.031 254.731 624.734 264.747 623.324 273.625C620.488 291.471 605.103 307.498 586.557 306.988C580.156 306.812 573.796 304.89 569.021 300.448C563.852 295.64 560.759 288.622 560.171 281.596C559.511 273.712 560.815 265.589 563.175 258.073C564.864 252.696 567.344 248.361 571.356 244.511" stroke="black" stroke-width="3" stroke-linecap="round"/>
<path d="M636 320L697 230" stroke="black" stroke-width="3" stroke-linecap="round"/>
<path d="M649 223C651.826 235.695 654.217 248.929 660.477 260.538C662.158 263.656 663.901 266.788 666.246 269.476C666.741 270.044 667.273 270.761 668 271" stroke="black" stroke-width="3" stroke-linecap="round"/>
<path d="M558.685 348.27C563.271 344.892 568.141 341.884 574.134 343.406C579.16 344.682 582.243 349.486 583.713 354.002C587.694 366.232 582.133 382.463 571.256 389.812C567.822 392.133 563.874 393.662 559.631 392.716C555.031 391.69 551.839 386.87 550.525 382.789C548.764 377.321 548.509 371.412 549.86 365.815C550.628 362.634 551.594 359.407 553.096 356.472C554.423 353.877 556.312 351.797 558.224 349.61" stroke="black" stroke-width="3" stroke-linecap="round"/>
<path d="M595.276 346.899C597.178 358.162 596.843 369.482 596.498 380.849C596.339 386.079 596.638 391.043 597.024 396.23C597.676 405.002 594.818 378.772 594.224 369.996C593.557 360.13 593.606 344.399 605.801 342.194C614.212 340.673 621.096 348.356 623 356.234" stroke="black" stroke-width="3" stroke-linecap="round"/>
<path d="M589 377C594.374 376.277 599.553 376 605 376" stroke="black" stroke-width="3" stroke-linecap="round"/>
<path d="M572 430.23C563.269 427.445 560.204 425.667 550.653 426.052C541.061 426.44 529.994 429.428 522.138 435.177C518.084 438.144 517.975 442.778 518.987 447.258C521.184 456.982 529.514 464.677 536.612 471.064C547.747 481.083 565.224 495.154 562.37 512.292C561.171 519.492 558.144 523.946 552.209 528.038C546.023 532.302 538.709 533.901 531.315 532.511C518.155 530.038 511.9 518.377 513.158 505.788" stroke="black" stroke-width="3" stroke-linecap="round"/>
<path d="M576 425C579.843 445.926 584.704 467.325 585.877 488.66C586.341 497.106 586.538 505.61 585.6 514.029C585.489 515.023 584.913 521.925 584.612 517.575C584.161 511.043 585.619 504.101 588.464 498.232C591.705 491.548 596.67 485.352 603.615 482.258C608.662 480.01 613.012 482.145 614.716 487.32C618.105 497.611 613.433 510.511 624 517.535" stroke="black" stroke-width="3" stroke-linecap="round"/>
<path d="M675.678 458C661.677 459.291 649.949 465.514 641.207 476.624C636.281 482.884 631.525 492.749 633.43 500.971C635.288 508.993 640.172 516.428 649.436 515.981C660.597 515.443 662.108 501.761 664.112 493.391C665.893 485.954 666.322 478.27 666.621 470.65C666.648 469.966 665.952 464.47 666.671 467.588C668.409 475.124 671.691 482.419 674.699 489.5C676.323 493.321 677.981 499.362 682 501.373" stroke="black" stroke-width="3" stroke-linecap="round"/>
<path d="M687 458C691.385 472.082 696.403 486.293 696.403 501.257C696.403 502.572 696.713 514.275 694.587 508.323C691.503 499.688 691.297 488.935 694.811 480.388C697.149 474.701 699.665 470.213 705.06 467.041C708.609 464.955 712.972 464.268 717 463.926" stroke="black" stroke-width="3" stroke-linecap="round"/>
<path d="M728 469C729.326 481.3 730.11 493.662 731 506" stroke="black" stroke-width="3" stroke-linecap="round"/>
<path d="M743.431 475.25C743.381 482.358 743 503.677 743 496.569C743 487.721 743.097 476.629 749.137 469.622C754.525 463.37 758.6 469.52 760.259 475.35C762.28 482.45 761.985 489.897 761.985 497.217" stroke="black" stroke-width="3" stroke-linecap="round"/>
<path d="M794.799 456C787.139 461.357 781.588 466.582 778.057 475.458C775.745 481.272 776.323 487.832 778.996 493.419C780.836 497.266 783.882 501.622 788.478 501.951C793.436 502.305 796.179 498.504 797.91 494.317C801.939 484.573 799.863 475.289 799.688 465.23C799.677 464.602 799.241 461.959 799.985 462.935C804.166 468.427 807.18 473.952 810.035 480.298C816.264 494.144 817.73 508.806 813.887 523.529C810.712 535.689 803.368 549.316 790.182 552.292C778.286 554.977 767.521 549.956 762.896 538.422C760.674 532.88 761.019 526.956 761.019 521.109" stroke="black" stroke-width="3" stroke-linecap="round"/>
<path d="M699.696 347.99C703.972 343.823 707.548 340.447 713.32 338.852C716.883 337.868 720.767 337.894 724.172 339.446C732.529 343.254 735.487 354.031 734.827 362.52C734.126 371.531 730.973 380.234 726.086 387.804C723.065 392.483 719.513 396.721 715.513 400.587C709.518 406.382 702.479 410.129 695.243 414.194" stroke="black" stroke-width="3" stroke-linecap="round"/>
<path d="M701.775 350.365C703.676 342.283 701.436 336.051 695.128 330.82C688.727 325.512 678.227 329.364 674.709 336.18C670.798 343.758 671.219 352.099 672.4 360.31C673.466 367.72 675.628 375.179 678.156 382.23C681.847 392.52 686.022 403.041 693.462 411.225" stroke="black" stroke-width="3" stroke-linecap="round"/>
<path d="M317.073 34.8398C361.993 34.3906 407.035 32.9225 451.889 35.6875C471.034 36.8677 490.041 37.1003 509.219 37.1003C539.778 37.1003 570.337 37.1003 600.897 37.1003C624.836 37.1003 648.679 35.4049 672.606 35.4049C681.427 35.4049 690.008 35.9593 698.79 36.5352C703.909 36.8708 709.565 37.0796 714.363 39.1097C721.407 42.0899 727.009 45.75 730.878 52.4846C734.837 59.3765 734.708 67.81 734.708 75.4667C734.708 80.7817 733.069 85.6451 729.308 89.4067C721.739 96.9749 706.108 94.264 696.781 93.7394C676.657 92.6074 656.573 89.7915 636.469 88.245C612.755 86.4209 589.141 84.5716 565.356 84.5716C523.62 84.5716 481.883 84.5716 440.147 84.5716C423.884 84.5716 407.62 84.5716 391.357 84.5716C380.108 84.5716 368.831 85.0405 357.7 83.1274C351.603 82.0794 344.84 81.6021 339.208 78.9517C329.542 74.4032 320.39 69.095 315.817 58.7638C313.966 54.5805 313.076 51.4701 314.687 46.9588C315.686 44.1619 315.835 41.2007 317.638 38.7957" stroke="black" stroke-width="3" stroke-linecap="round"/>
<path d="M382.063 48.7288V65.7856" stroke="black" stroke-width="3" stroke-linecap="round"/>
<path d="M368.255 49.8892C373.264 49.8892 378.273 49.8892 383.282 49.8892C385.998 49.8892 388.676 50.089 391.385 50.2115C392.53 50.2633 393.68 50.2373 394.827 50.2373" stroke="black" stroke-width="3" stroke-linecap="round"/>
<path d="M394.436 50.7676C394.6 55.0685 394.921 67.9748 394.921 63.6708C394.921 63.0569 394.968 62.4549 395.082 61.8492C395.495 59.6591 396.997 57.1634 399.308 56.6359C402.176 55.9813 403.901 58.8901 404.522 61.2615C404.942 62.8663 404.854 64.548 404.854 66.1922" stroke="black" stroke-width="3" stroke-linecap="round"/>
<path d="M409.134 62.6387C411.166 62.2468 413.316 61.4594 414.599 59.7225C415.418 58.6132 416.063 56.8744 415.281 55.559C414.49 54.2299 413.254 53.8042 411.763 53.9977C410.13 54.2098 408.892 55.5819 408.367 57.071C406.995 60.9635 407.769 66.5918 411.602 68.8346C412.955 69.6264 414.617 69.3164 415.972 68.7448C416.555 68.4987 417.195 68.1526 417.291 67.4841" stroke="black" stroke-width="3" stroke-linecap="round"/>
<path d="M438.927 52.9563C438.792 58.6743 438.563 64.4019 438.563 70.1225" stroke="black" stroke-width="3" stroke-linecap="round"/>
<path d="M435.872 54.3383C440.44 54.1109 444.974 53.8291 449.55 53.8291C450.665 53.8291 451.782 53.9018 452.892 53.9018" stroke="black" stroke-width="3" stroke-linecap="round"/>
<path d="M437.908 62.9942C441.078 62.5943 444.187 62.2069 447.388 62.1941C448.35 62.1902 449.312 62.1941 450.274 62.1941" stroke="black" stroke-width="3" stroke-linecap="round"/>
<path d="M436.963 71.2136C440.897 71.0374 444.839 70.7569 448.779 70.8661C450.393 70.9108 452.004 71.0681 453.62 71.0681" stroke="black" stroke-width="3" stroke-linecap="round"/>
<path d="M459.221 58.5721C459.363 62.562 459.605 66.576 459.501 70.5711C459.452 72.4671 459.368 71.0829 459.373 70.749C459.387 69.6435 459.507 68.541 459.615 67.4418C459.821 65.331 460.021 63.1088 460.561 61.0544C460.974 59.4844 461.689 57.8162 462.975 56.7558C464.222 55.7275 466.001 55.9642 467.141 57.0094C470.066 59.6903 469.923 64.3702 469.608 68.0094C469.53 68.9122 469.37 69.8222 469.37 70.7301C469.37 70.9936 469.287 71.4228 469.438 71.6496" stroke="black" stroke-width="3" stroke-linecap="round"/>
<path d="M481.046 49.3152C481.479 53.3621 481.539 57.4632 481.704 61.5261C481.851 65.1473 482.106 68.8007 482.106 72.4279C482.106 72.5221 482.106 72.866 482.106 72.5664C482.106 71.2982 481.721 69.9103 481.323 68.7224C480.772 67.0807 479.876 65.1375 478.379 64.1511C477.025 63.2585 474.75 63.265 473.687 64.6636C472.334 66.4435 473.06 69.0096 474.095 70.7552C475.056 72.3749 476.772 73.8634 478.788 73.5499C480.423 73.2956 480.859 71.8026 480.859 70.3847" stroke="black" stroke-width="3" stroke-linecap="round"/>
<path d="M481.669 67.7043C481.86 69.7504 482.305 72.7056 484.481 73.5847C484.955 73.7759 485.495 73.7471 485.784 73.3146" stroke="black" stroke-width="3" stroke-linecap="round"/>
<path d="M101.313 63.3636C98.0703 60.6177 94.8287 58.3863 90.4141 58.5287C84.9522 58.7049 80.4708 61.6087 77.6279 66.271C75.9301 69.0554 75.3626 72.4748 74.9213 75.6519C74.4782 78.8419 74.4784 82.389 75.1783 85.5386C76.5015 91.4928 80.0888 96.7982 85.9245 99.1199C90.5971 100.979 96.1874 101.271 100.67 98.7826C104.819 96.4801 107.692 91.9419 108.541 87.3297C110.101 78.8571 102.002 70.3029 93.3456 71.861C89.544 72.5453 86.6219 75.8483 86.7357 79.772C86.8494 83.6957 89.5502 87.9991 93.1287 89.6508C96.1368 91.0391 99.697 90.2151 99.7547 86.3498C99.7786 84.7502 98.736 83.0692 97.9236 81.7397C97.7386 81.437 97.3165 80.5598 96.9758 81.033C96.2464 82.0461 95.8264 83.1588 95.3535 84.2938C94.9629 85.2312 94.5473 82.1121 95.0965 81.2578C95.8346 80.1096 98.6979 82.8235 99.4335 83.3139" stroke="black" stroke-width="3" stroke-linecap="round"/>
<path d="M153.682 75.2979C148.937 76.0118 144.177 76.6275 139.419 77.2487C135.968 77.6992 131.587 78.2676 127.993 78.7019C126.455 78.8877 126.914 78.881 126.211 78.881C125.932 78.881 125.654 78.881 125.375 78.881" stroke="black" stroke-width="3" stroke-linecap="round"/>
<path d="M121.792 80.3141C124.648 77.562 127.492 74.7941 130.451 72.1525C130.663 71.9633 131.953 70.54 132.422 70.54C132.538 70.54 132.31 70.7439 132.243 70.8386C131.998 71.184 131.493 71.8737 131.287 72.1525C129.579 74.469 127.888 76.7824 125.933 78.9008C124.987 79.9256 123.775 80.8631 122.927 81.9763C122.828 82.1054 122.682 82.3923 122.728 82.5636C122.883 83.1464 124.273 83.7129 124.668 83.9272C126.065 84.684 127.481 85.3052 128.958 85.868" stroke="black" stroke-width="3" stroke-linecap="round"/>
<path d="M183.611 69.5971C191.73 68.8377 199.94 68.2798 208.035 67.2444C209.699 67.0316 204.688 67.4533 203.017 67.5981C199.887 67.8694 196.762 68.2174 193.647 68.6264C189.772 69.1353 185.972 70.0833 182.13 70.7817" stroke="black" stroke-width="3" stroke-linecap="round"/>
<path d="M211.301 67.6724C208.736 65.6509 206.099 63.775 203.157 62.3417C202.992 62.2615 202.396 62.0554 202.869 62.391C204.367 63.4544 206.041 64.2727 207.681 65.0893C207.832 65.1642 212.232 66.9447 211.975 67.261C211.136 68.2939 209.507 68.9569 208.454 69.7783C206.644 71.1915 204.916 72.712 203.157 74.1877" stroke="black" stroke-width="3" stroke-linecap="round"/>
<path d="M1025.56 60.8102C1031.11 59.4013 1037.02 57.3076 1042.84 58.4396C1045.33 58.9248 1047.28 60.4248 1049.03 62.1677C1051.33 64.4701 1053.34 67.4145 1054.53 70.4502C1057.38 77.678 1058.34 85.0912 1057.16 92.7401C1056.47 97.2081 1054.24 101.954 1051.21 105.311C1047.41 109.523 1040.56 112.029 1034.94 111.272C1024.51 109.868 1016.96 98.0455 1015.38 88.4119C1014.43 82.5521 1014.87 76.6813 1017.27 71.2273C1018.52 68.3906 1020.05 65.9847 1022.45 63.9776C1026.64 60.4672 1031.89 60.002 1037.06 58.8626" stroke="black" stroke-width="3" stroke-linecap="round"/>
<path d="M1025.56 72.8503C1027.19 72.4764 1030.69 71.1437 1032.03 72.929C1033.01 74.2394 1031.79 75.7472 1030.88 76.7063C1029.68 77.9596 1026.85 79.3792 1026.09 77.0998" stroke="black" stroke-width="3" stroke-linecap="round"/>
<path d="M1039.9 71.2567C1041.23 70.9292 1044.19 69.5939 1045.24 71.296C1045.83 72.2464 1045.37 73.5831 1044.89 74.4634C1044.34 75.4916 1042.62 76.8702 1041.67 75.6832" stroke="black" stroke-width="3" stroke-linecap="round"/>
<path d="M1030.87 90.9104C1032.75 93.3589 1034.44 95.029 1037.63 95.3762C1039.56 95.5866 1041.32 94.9765 1043.07 94.2155C1044.03 93.7951 1044.91 92.9318 1045.92 92.681" stroke="black" stroke-width="3" stroke-linecap="round"/>
</svg>
